<?xml version="1.0" encoding="UTF-8"?>
<!DOCTYPE svg PUBLIC "-//W3C//DTD SVG 1.1//EN" "http://www.w3.org/Graphics/SVG/1.1/DTD/svg11.dtd">
 <svg xmlns="http://www.w3.org/2000/svg" version="1.1" style="shape-rendering:geometricPrecision; text-rendering:geometricPrecision; image-rendering:optimizeQuality; fill-rule:evenodd; clip-rule:evenodd; background-color:#cccccc" 
 viewBox="0 0 21500 23500" xmlns:xlink="http://www.w3.org/1999/xlink"> 
 <defs>
  <style type="text/css">
   <![CDATA[
    .str0 {stroke:black;stroke-width:10;stroke-miterlimit:22.9256}
    .fil6 {fill:none}
    .fil0 {fill:#FEFEFE}
    .fil1 {fill:#cccccc}
   ]]>
  </style>
 </defs>
 <g id="states">
  <path class="fil0 str0" id="Dickonson" d="M6654.02 8763.27l-2.22 -1061.55 0 0 1116.21 0 0 888.94 0 0 3.99 308.89 -174.06 0 0 595.11 -234.11 -0.88 0 0c-9.1,-18.97 -20.38,-35.64 -32.75,-41.23 -60.44,-27.29 -88.79,-85.79 -125.16,-142.53 -23.3,-36.37 -38.51,17.73 -81.07,-5.7 -37.16,-20.47 -79.87,-9.99 -123.74,-17.1 -85.9,-13.92 -41.83,-90.7 -75.39,-108.32 -10.65,-5.58 -30.83,8.01 -35.55,11.4 -12.66,9.08 -70.49,23.57 -91.03,32.78 -29.54,13.26 -63.54,13.87 -88.18,-12.83 -23.82,-25.83 -15.88,-38.64 -55.47,-47.03 -64.51,-13.67 -84.26,-121.15 -14.23,-121.15 110.3,0 27.03,-124.89 27.03,-165.33 0,-32.03 16.93,-84.2 -5.69,-106.89 -2.46,-2.47 -5.37,-4.64 -8.58,-6.58l0 0z"/>
  <path class="fil0 str0" d="M7363.83 9493.78l234.11 0.88 0 -595.11 174.06 0 -3.99 -308.89 0 0 583.58 2.46 0 0 0 297.98 80.37 0 0 1198.67 92.62 0.11 0 0c-3.52,12.35 -2.5,25.94 -5.86,38.24 -5.91,21.65 -27.92,42.47 -37.69,64.14 -5.25,11.64 -4.93,20.25 -12.81,32.07 -5.56,8.32 -23.62,23.96 -24.89,32.78 -16.77,9.6 -36.27,52.14 -36.27,71.26 0,30.18 45.21,70.26 -12.8,89.08 -13.01,4.22 -41.82,18.48 -42.67,33.49 -1.61,28.6 -3.17,31.43 -19.2,57.01 -7.83,10.36 -23.95,36.35 -39.11,36.35 -0.04,0.2 -7.47,8.19 -8.53,8.55 -2.86,19.81 1.08,69.12 -27.74,69.12 -8.68,12.96 -12.13,24.44 -13.51,41.33 -2.09,25.62 -32.44,38.01 -50.49,54.16 -15.75,14.08 -5.69,78.61 -16.36,81.24 -2.86,11.69 -39.46,42.56 -49.07,55.59 -19.28,26.16 -34.69,61.33 -57.6,86.23 -6.91,8.23 -29.99,29.9 -31.29,39.19 -10.38,5.89 -44.7,60.01 -51.21,72.69 -6.54,12.76 -26.83,34.97 -37.69,47.03l-52.62 58.44c-19.18,21.31 -40.69,59.38 -63.3,75.54 -2.01,16.32 -22.76,30.7 -28.44,43.47 -4.58,10.29 1.15,20.55 -6.4,32.07 -32.6,49.76 -15.03,65.4 11.37,111.88 4.73,6.84 1.79,1.33 9.1,13.61l0 0c-0.09,-0.02 -1.05,-0.23 -1.12,-0.24 -3.7,-0.81 -2.9,-1.97 -5.84,-1.97 -0.47,0 -0.94,0 -1.42,0 -1.43,0 -1.97,-2.05 -3.56,-2.14 -15.65,-0.92 -38.19,-8.48 -55.47,-12.11 -8.49,-1.79 -40.42,-10.03 -51.2,-12.83 -28.15,-7.31 -49.62,-24.34 -61.87,-52.02 -5.92,-13.36 3.88,-24.5 -4.27,-37.77 -6.49,-10.55 -15.24,-22.19 -22.05,-31.36 -1.64,-2.2 -4.28,-3.69 -7.11,-4.27 -25.12,-5.14 -62.52,-56.56 -81.07,-73.4 -27.98,-25.38 -52.1,-67.59 -41.96,-107.61 3.14,-12.4 35.56,-23.67 40.54,-37.06 2.22,-5.99 0.35,-84.92 8.53,-92.64 14.17,-13.35 19.91,-28 19.91,-47.03 0,-34.99 28.29,-70.46 42.67,-101.19 7.11,-15.2 14.24,-30.4 21.34,-45.61 5.52,-11.8 19.82,-34.04 24.18,-41.34 1.93,-3.25 10.24,-8.51 11.37,-12.82 7.38,-28.14 42.24,-55.51 49.79,-82.67 3.88,-13.94 2.04,-32.8 -4.27,-44.18 -4.63,-8.37 -25.94,-34.69 -28.45,-35.63 -18.61,-6.94 -41.66,-45.41 -51.2,-58.44 -16.16,-22.04 -31.75,-19.12 -46.94,-5.7 -21.18,18.73 -31.23,54.77 -52.62,68.41 -5.62,3.59 -19.91,8.37 -19.91,11.41 0,0.95 0,1.9 0,2.85 0,8.01 -11.07,15.18 -19.92,19.95 -4.13,2.23 -13.72,10.19 -15.64,14.25 -8.18,17.33 -23.92,5.7 -29.87,-2.85 -2.06,-2.95 -5.93,2.37 -8.54,2.85 -10.38,1.9 -29.22,12.8 -45.51,0 -24.5,-19.23 -47.32,-5.55 -75.38,1.43 -7.68,1.9 -45.5,36.81 -51.21,22.8 -1.01,-2.47 -0.5,-1.56 -2.84,-2.85 -4.89,-2.68 -9.69,-1.91 -12.8,-5.7 -4.33,-5.3 -8.83,-19.95 -17.07,-19.95 -0.94,0 -1.89,0 -2.84,0 -9.18,0 -29.4,8.25 -34.14,8.55 -30.38,1.92 -33.59,-38.54 -8.53,-45.61 11.62,-3.28 8.51,-39.97 14.22,-52.73 1.26,-2.84 5.26,-4.63 7.11,-7.13 1.1,-1.49 3.85,0.38 4.27,-1.43 4.35,-18.81 25.24,-39.7 32.71,-55.58 4.4,-9.34 -14.22,-72.07 -14.22,-86.94 0,-24.18 8.86,-37.83 28.45,-49.89 23.27,-14.34 51.33,-34.57 71.11,-57.01 20.29,-23.04 54.34,-76.76 58.32,-109.74 4.12,-34.23 -19.89,-116.92 -44.1,-143.95 -22.09,-24.65 -77.62,-89.79 -39.82,-88.37 25.13,0.94 50.25,2.85 75.38,2.85 1.06,0 0.95,-1.91 1.42,-2.85 3.45,-6.94 13.46,-1.47 15.65,-7.12 14.29,-36.9 20.79,-73.87 24.18,-115.45 3.68,-45.25 -107.07,-124.43 -86.76,-165.33 17.24,-34.74 75.22,-22.26 64,-74.11 -3.13,-14.49 -10.78,-39.49 -21.3,-61.39l0 0z"/>
  <path class="fil0 str0" d="M6654.02 8763.27l-2.22 -1061.55 0 0 -8.47 -576.62 0 0 -1272.18 0 0 0 -712.59 0 0 0 2.4 281.26 0 0 20.63 801 0 0 272.81 170.54c28.46,3.58 47.56,32.43 69.26,49.4 18.34,2.48 42.4,-1.13 55.9,-8.06 64.13,-32.91 34.29,34.2 98.14,34.2 31.24,0 54.19,-26.16 81.07,-14.25 28.39,12.57 61.81,55.58 93.88,55.58 54.97,0 90.85,77.69 147.92,41.34 32.17,-20.5 21.44,-42.12 29.86,-74.12 14.16,-53.76 47.05,32.78 58.32,32.78 11.82,0 24.6,-18.71 39.82,-19.95 28.18,-2.29 52.8,-2.97 78.23,-15.68 45.31,-22.64 31.39,12.94 59.74,41.34 57.64,57.76 39.04,-13.8 76.8,11.4 20.23,13.51 43.19,14.8 65.43,22.8 19.46,6.99 33.45,36.81 56.89,39.91 51.62,6.83 45.82,-11.13 81.07,-34.21 2.44,-1.6 46.87,37.71 55.47,45.61 17.87,16.4 29.04,33.41 46.94,51.31 12.4,12.4 105.03,17.19 125.16,15.68 21.38,-1.6 71.76,-69.27 72.54,-17.1 0.87,57.99 67.25,52.32 106.68,41.33 20.7,-5.77 69.23,28.5 95.29,28.5 1.43,0 2.85,0 4.27,0 1.23,0 17.74,11.93 18.49,14.26 8.55,26.57 56.21,27.48 82.45,43.3l0 0z"/>
  <path class="fil0 str0" d="M13511.19 10562.27l0 59.71 115.88 0c22.94,8.18 15.53,6.94 19.09,7.83 0.65,2.61 0.23,2.2 2.84,2.85l1.43 1.43c0.64,2.58 2.2,3.12 2.84,5.7 3.08,1.02 12.86,23.42 15.65,28.5 4.27,7.74 4.44,19 7.11,27.08 8.99,27.21 17.07,54.19 17.07,84.09 1.17,0.39 2.52,17.05 2.84,19.96 0.98,8.66 15.67,14.97 22.76,18.53 5.2,1.51 10.31,3.37 15.64,4.27 5.13,0.86 6.41,2.46 11.38,2.85 2.89,0.23 4.67,2.63 8.53,1.43 5.35,-1.68 11.98,-5.6 15.65,-8.55 2.27,-1.81 7.11,-9.87 7.11,-12.83 3.03,-1.01 1.66,-2.99 2.85,-5.7 0.65,-1.46 3.38,-2.85 4.26,-4.28 0.59,-0.97 0.89,-1.86 1.43,-2.85 2.94,-5.35 5.98,-17.77 10.66,-22.45l544.07 -3.58 0 0 0 -1543.96 0 0c-1.92,-11.51 -3.08,-22.73 -5.01,-30.57 -41.82,-6.07 -41.52,39.52 -93.16,2.85 -28.34,-20.13 -65.14,8.75 -51.92,42.04 9.03,22.73 32.7,26.02 18.49,54.87 -19.47,39.55 -52.2,34.12 -82.49,14.26 -21.64,-15.62 -11.77,23.02 -39.83,24.23 -23.09,1 -61.33,-12.51 -81.78,-24.23 -5.33,-3.06 -26.86,-23.98 -30.58,-22.1 -13.76,6.94 -15.15,34.88 -34.84,44.9 -23.21,11.82 -47.01,-24.71 -64.01,-34.92 -38.87,-23.35 -107.13,-4.17 -152.19,-12.11 -59.76,-10.52 -112.5,-14.26 -173.52,-14.26 0,27.8 81.89,24.23 99.56,24.23 42.27,0 55.38,21.49 91.74,35.64 12.24,4.07 37.42,12.82 49.07,12.82 6.71,5.39 24.72,3.06 29.87,12.12 19.98,8.01 24.18,47.51 24.18,66.27 0,27.13 -28.68,60.27 -49.78,74.12 -13.85,9.1 -13.41,31.92 -25.6,44.18 -8.17,1.14 -13.98,5.7 -23.47,4.99 -5.2,-0.39 -15.2,-6.85 -19.91,-2.14 -13.01,13.01 -6.44,48.66 -15.65,66.27 -20.16,38.57 -85.15,44.92 -119.47,64.85 -37.43,21.72 -33.39,33.42 -51.21,69.13 -16.82,16.92 -21.08,44.57 -38.4,62.71 -11.76,12.33 -28.76,26.23 -37.69,40.62 -4.92,3.08 -6.05,9.24 -10.67,12.11 -44.86,72.24 5.63,171.12 24.89,241.58 5.52,20.19 6.74,52.01 15.65,69.84 0,14.95 5.49,26.9 8.53,41.33 34.6,34.84 59.67,74.77 96.72,107.61 31.66,28.05 69.8,32.85 105.25,50.6 15.6,7.82 43.42,35.66 60.45,31.35 0,-18.07 -18.51,-23.73 -21.34,-34.91 48.46,0 130.14,-8.21 162.15,36.34 44.31,61.64 -72.64,112.34 -110.23,129.7 -50.25,23.22 -98.92,-0.24 -141.52,23.51 -45.69,25.47 -93.31,20.41 -141.37,10.14l0 0z"/>
  <path class="fil0 str0" d="M16266.16 11041.74l1093.82 -0.26 0 0c-12.01,-24.69 -21.12,-52.76 -28.61,-76.73 3.67,-14.57 -2.84,-23.91 -2.84,-35.63 39.01,-13.25 58.84,26.44 56.18,-44.19 -2.04,-54.4 -38.11,-53.33 -68.98,-88.36 -15.34,-17.42 -51.95,-37.05 -61.16,-55.59 -14.09,-28.33 -30.72,-42.55 -43.38,-71.26 -8.71,-19.74 -33.56,11.98 -41.25,8.55 -14.95,-6.66 -6.78,-40.38 0,-50.6 12,-18.06 -30.46,-60.73 -31.29,-41.33 -1.47,34.07 19.57,81.69 -37.69,48.46 -16.48,-9.57 -69.31,-62.71 -82.49,-62.71 0,67.61 -59.03,41.88 -96.01,25.65 -19.71,-11.24 -37.26,-29.54 -61.16,-31.35 -19.54,-1.47 -39.26,-10.2 -54.76,-22.09 -34.94,-26.78 -47.15,-44.95 -92.45,-59.87 -75.07,-24.74 -57.56,-125.3 -139.39,-43.47l-1.42 0c-19.62,-19.62 -15.53,-39.3 -47.65,-15.67 -23.44,17.23 -39.88,-27.08 -59.73,-27.08 -20.94,0 -29.66,-2.74 -47.65,-14.97 -18.21,-12.37 -51.56,-22.43 -64.01,-39.91l-150.76 -153.92c-60.87,-62.13 -135.72,-21.01 -206.24,-31.36 -35.07,-5.15 -68.76,-29.41 -98.85,-6.41 -28.02,21.43 -124.5,3.12 -142.94,-29.22 -9.38,-3.4 -16.41,-15.24 -19.2,-24.23 -29.27,-47.14 -36.98,-100.32 -36.98,-155.35 -19.05,-32.18 -37.41,-64.8 -63.29,-94.07 -24.91,-28.19 -58.51,-49.56 -79.65,-81.95 -13.18,-20.18 -21.42,-47.99 -37.69,-65.56 -10.32,-11.13 -55.16,-15.21 -88.66,-20.25l0 0 -1.52 1360.73 0 0 837.7 0 0 0z"/>
  <path class="fil0 str0" d="M14340.28 9222.3c2.82,16.82 7.33,34.31 18.46,42.83 24.38,18.69 52.16,13.04 74.67,29.93 15.67,11.77 22.09,24.09 42.67,30.64 65.79,20.93 100.84,79.06 170.68,100.48 13.27,11.7 35.21,22.91 51.91,27.79 15.23,4.44 20.88,23.24 29.16,34.92 20.34,28.66 68.43,32.19 95.29,53.45 24.07,19.04 43.58,30.1 65.43,52.02 31.71,31.79 58.91,19.75 90.32,40.62 12.28,8.15 56.89,45.5 56.89,0.71 -36.83,-24.55 -50.42,-70.76 12.8,-51.31 21.13,6.49 40,23.27 60.45,28.51 29.91,7.68 47.16,-0.39 76.09,-3.56l59.74 -12.83c53.27,19.88 97.87,58.41 155.74,78.39 6.98,2.41 17.48,4.33 29.4,6.12l0 0 -1.52 1360.73 0 0 -266.64 0 0 0 -821.54 0 0 0 0 -275.48 0 0 0 -1543.96 0 0z"/>
  <path class="fil0 str0" d="M17359.98 11041.48c5.46,11.21 11.53,21.76 18.33,30.87 11.46,15.37 36.65,41.04 41.96,57.73 11.89,37.4 0.91,68.32 36.98,93.35 15.16,10.51 20.72,21.03 29.16,37.06 7.25,13.75 28.86,11.75 41.95,19.24l30.58 116.87c1.39,20.18 -0.7,24.9 7.83,42.76 9.73,20.4 -8.07,34.2 -11.38,54.87 -8.39,52.23 5.56,24.23 36.27,24.23 8.54,11.44 -22.91,29.08 -25.6,39.91 -8.47,34.11 62.01,10.03 74.67,38.48 11.38,25.6 28.01,54.19 34.84,80.53 4.86,18.71 -43.36,-3.65 -49.07,-5.71l-106.67 -38.48c-19.42,-7.01 -34.07,-20.74 -50.49,-32.78 -17.11,-12.56 -24.26,-34.89 -40.54,-49.17 -4.41,-15.29 -7.23,-38.1 -19.2,-49.17 -14.01,-12.94 -53.78,30.12 -75.38,37.06 -52.67,16.95 -78.55,56.07 -92.45,106.89 -14.23,52.05 52.37,52.63 44.8,83.38 -19.59,4.83 -38.11,-12.83 -59.02,-12.83 -17.7,0 5.13,23.65 9.24,29.22 32.04,43.46 11.54,110.84 24.89,161.05 -4.09,27.24 25.02,81.33 54.76,82.67 29.09,1.32 25.37,18.92 41.25,41.33 20.59,29.07 19.41,21.29 49.78,22.8 6.42,0.32 51.5,41.5 65.42,48.46 34.34,17.16 48.97,11.4 83.21,11.4l0.71 0.72c0,7.72 -0.81,15.48 -2.02,23.25l0 0 -1298.11 0.33 0 0 9.48 -1096.06 0 0 1093.82 -0.26 0 0z"/>
  <path class="fil0 str0" d="M16266.16 11041.74l-9.48 1096.06 0 0 -1094.86 0.07 0 0 0 -1096.13 0 0 266.64 0 0 0 837.7 0 0 0z"/>
  <path class="fil0 str0" d="M15161.82 11041.74l0 1096.13 0 0 -1101.77 -1.56 0 0 -21.33 -819.49 0 0 298.8 0 2.76 -275.08 0 0 821.54 0 0 0z"/>
  <path class="fil0 str0" d="M14038.72 11316.82l21.33 819.49 0 0 -1011.26 -3.56c-8.48,6.92 -26.78,22.87 -30.58,33.49 -4.68,13.04 -9.88,26.13 -14.23,39.19 -2.58,7.77 -5.92,23.1 -10.66,29.22 -1.03,11.56 -13.01,19.64 -18.49,28.51l0 0 -39.12 -33.5c-3.88,-3.88 -8.99,-6.14 -12.8,-9.97 -3.66,-3.66 -6.88,-7.84 -10.67,-11.41 -6.48,-6.08 -13.42,-13.78 -17.77,-21.37l-2.85 -1.43c-3.43,-6.05 -6.01,-15.06 -9.96,-19.95 -1.67,-13.61 -8.43,-28.12 -12.6,-41.55l-133.14 0 0 0c0.95,-8.16 2.16,-16.41 4.94,-24.73l6.4 -5.7c18.08,-36.16 42.6,-69.32 56.18,-107.61 18.03,-50.87 42.36,-125.64 40.53,-179.58l-6.4 -187.42c12.7,-17.57 27.75,-65.83 34.85,-89.08 4.64,-15.23 0.71,-32.5 0.71,-48.46 0,-48.14 25.58,-118.62 -12.09,-161.76 -5.29,-29.22 -17.78,-54.24 -17.78,-86.94 0,-33.29 -4.51,-68.44 -8.53,-101.2l1.42 -7.84c-12.16,-24.44 -15.13,-57.45 -12.59,-92.41l0 0 390.22 0 0 285.57 824.94 0 0 0z"/>
  <path class="fil0 str0" d="M12974.83 12263.16c5.48,-8.87 17.46,-16.95 18.49,-28.51 4.74,-6.12 8.08,-21.45 10.66,-29.22 4.35,-13.06 9.55,-26.15 14.23,-39.19 3.8,-10.62 22.1,-26.57 30.58,-33.49l1011.26 3.56 0 0 0 1089.23 0 0 -1085.22 1.12 0 0 0 -963.5 0 0z"/>
  <path class="fil0 str0" d="M15161.82 12137.87l-1.2 1087.67 0 0 -1100.57 0 0 0 0 -1089.23 0 0 1101.77 1.56 0 0z"/>
  <path class="fil0 str0" d="M15161.82 12137.87l1094.86 -0.07 0 0 0 1084.14 0 0 -1096.06 3.6 0 0 1.2 -1087.67 0 0z"/>
  <path class="fil0 str0" d="M17554.79 12137.47c-5.14,32.76 -17.72,65.92 -9.36,98.61 6.3,24.62 33.49,31.53 38.41,51.31 6.07,24.45 3.8,48.6 11.37,74.11l-2.13 7.84c5.58,9.37 0,39.14 0,51.31 0,33.28 3.85,59.22 -4.27,91.93 -13.57,54.6 14.88,110.66 53.34,145.37 15.77,14.22 -22.85,133.41 -24.89,160.34 -2.59,6.18 -3.55,8.39 -4.27,14.26 -8.67,10.86 -13.65,38.76 -21.33,52.73 -9.34,16.96 -18.23,40.36 -29.87,54.87 -2.7,27.53 -13.51,50.91 -13.51,81.24 0,72.62 16.19,132.36 10.72,199.55l0 0 -1302.32 1 0 0 0 -1084.14 0 0 1298.11 -0.33 0 0z"/>
  <path class="fil0 str0" d="M17559 13220.94c-1.41,17.43 -4.3,35.36 -9.3,54.15l-4.98 6.41c0,66.41 -19.65,137.13 -22.04,203.1 -1.3,35.95 -7.98,67.7 -2.14,104.05 3.71,23.05 18.49,44.27 18.49,66.98 -21.48,28.98 -30.56,98.11 -32.71,133.27 3.81,61.13 10.53,89.07 -54.76,89.07 -43.17,0 -116.47,96.47 -135.12,133.98 -14.93,30.05 -24.38,63.29 -41.25,92.64 -9.36,16.27 -48.18,52.83 -51.2,62 0,-34.44 42.73,-63.14 14.93,-104.76 -26.15,-39.17 -136.23,2.82 -159.3,31.36 -46.64,57.73 -72.53,124.7 -72.53,201.67 -2.5,3.49 -4.49,9.58 -6.18,16.86l0 0 -744.47 0.24 0 0 0.24 -1090.02 0 0 1302.32 -1 0 0z"/>
  <path class="fil0 str0" d="M15160.62 13225.54l1096.06 -3.6 0 0 -0.24 1090.02 0 0 -634.6 0 0 0 -460.47 0 0 0 -0.75 -1086.42 0 0z"/>
  <path class="fil0 str0" d="M14060.05 13225.54l1100.57 0 0 0 0.75 1086.42 0 0 -537.75 0 0 0 -556.28 0 0 0 -7.29 -1086.42 0 0z"/>
  <path class="fil0 str0" d="M12974.83 13226.66l1085.22 -1.12 0 0 7.29 1086.42 0 0 -530.15 0 0 0 -567.64 0 0 0 5.28 -1085.3 0 0z"/>
  <path class="fil0 str0" d="M12735.92 12123.98l133.14 0c4.17,13.43 10.93,27.94 12.6,41.55 3.95,4.89 6.53,13.9 9.96,19.95l2.85 1.43c4.35,7.59 11.29,15.29 17.77,21.37 3.79,3.57 7.01,7.75 10.67,11.41 3.81,3.83 8.92,6.09 12.8,9.97l39.12 33.5 0 0 0 963.5 0 0 -1091.91 -15.3 0 0 0 -834.06 0 0 395.44 0.47 0 0c0.86,2.87 1.66,5.76 2.38,8.67 0,28.73 -18.49,47.07 -18.49,76.25 0,32.53 98.7,55.23 100.98,-0.71 2.07,-50.64 26.6,-101.22 41.96,-148.23 10.15,-31.05 29.98,-58.05 40.54,-89.79 15.81,-47.56 54.43,-72.12 60.44,-126.85 8.73,-79.52 -38.94,2.72 -56.18,19.96 -2.66,0 -4.12,-0.15 -6.4,-0.71 -2.14,-15.33 -9.92,-24.66 -5.69,-42.05 2.05,-8.4 27.87,-55.89 33.43,-57.72 17.72,-29.92 32.25,-58.76 39.11,-93.36 4.29,-21.61 10.18,-42.79 12.09,-64.85 3.28,-38.01 38.39,-27.89 57.6,-59.86 13.27,-22.07 22.94,-44.18 55.47,-44.18 3.86,3.83 27.19,113.6 24.9,119.01 -20.5,0 -62.05,-26.62 -46.23,11.4 10.65,25.59 4.16,55.87 -4.98,80.53 -11.55,31.2 -2.84,74.85 -2.84,108.32 0,38.12 -19.2,65.31 -19.2,104.75 -4.3,15.29 -10.11,25.3 -15.65,39.2 -15.85,9.93 -23.77,29.91 -43.38,35.63 -21.85,6.38 -61.85,41.45 -68.98,63.42 -11.57,35.67 -12.8,48.25 -12.8,87.66 0,45.79 -46.16,96.95 -7.11,133.26 35.26,32.78 67.56,19.5 99.56,-10.69 63.45,-59.84 -34.52,-117.51 68.98,-163.19 27.29,-12.05 51.2,-47.6 51.2,-77.68 0,-27.56 16.19,-51.8 38.41,-68.41 6.37,-17.6 20.72,-35.05 29.15,-52.02 6.78,-13.64 7.66,-27.48 9.29,-41.55l0 0z"/>
  <path class="fil0 str0" d="M11882.92 12377.3l0 834.06 0 0 -959.68 -2.65 0 0 4.88 -25.55c6.81,-35.69 11.05,-116.9 -11.38,-146.8 -1.57,-14.41 -11.33,-28.5 -12.8,-42.05 -20.07,-25.69 -26.44,-89.92 -36.98,-121.86 -0.74,-6.51 0.61,-6.52 -2.14,-9.97l-0.71 -4.28c-23.34,-86.58 -27.72,-123.02 47.65,-175.3 26.24,-18.21 74.09,-30.7 104.54,-37.06 15.56,-3.24 30.19,-11.69 44.8,-17.82 12.11,-5.07 21,-31.35 25.6,-31.35 0.39,1.57 0.59,1.42 2.14,1.42 18.97,38.2 118.46,-0.9 140.81,-20.66 50.7,-44.8 41.24,-108.93 41.24,-170.32 2.7,-10.25 4.9,-20.16 6.67,-29.81l0 0 605.36 0 0 0z"/>
  <path class="fil0 str0" d="M11882.92 13211.36l1091.91 15.3 0 0 -5.28 1085.3 0 0 -518.1 0 0 0 -573.94 0 0 0 5.41 -1100.6 0 0z"/>
  <path class="fil0 str0" d="M10923.24 13208.71l959.68 2.65 0 0 -5.41 1100.6 0 0 -507.77 -2.84 0 0 -760.93 -26.37 0 0c13.62,-9.83 29.48,-56.39 32.71,-72.69 2.07,-10.44 7.71,-64.85 18.49,-64.85 45.38,-36.41 59.1,-100.77 82.49,-150.36 24.24,-51.37 57.2,-93.18 82.5,-143.96 24.2,-64.71 27.5,-140.77 39.82,-208.8 12.17,-67.26 -0.71,-145.68 -0.71,-214.5 1.92,-3.22 0.91,-8.08 3.56,-11.4 0.74,-6.04 7.11,-11.32 7.82,-17.1 7.99,-10.34 15.32,-24.26 18.49,-37.06l29.26 -153.32 0 0z"/>
  <path class="fil0 str0" d="M10608.81 14282.75l760.93 26.37 0 0 0 1106.12 0 0 -921.46 -11.51 0 0c-9.16,-42.61 -18.14,-86.02 -17.97,-127.58l2.13 -74.82c-15.37,-20.74 -20.24,-66.56 -29.16,-91.93 -11.51,-32.7 -15.71,-64.79 -19.91,-99.06 -14.29,-9.52 -43.94,-74.33 -54.05,-92.64 -22.27,-40.3 -58.31,-80.85 -58.31,-130.41 -4.08,-21.16 7.16,-75.98 26.31,-86.94 0.81,-1.63 3.74,-4.59 5.69,-5.7 19.19,-38.52 85.45,-50.17 103.83,-86.94 25.47,-16.05 102.3,-109.09 105.96,-138.97 7.41,-9.24 7.21,-25.27 15.65,-34.92 5.17,-42.02 51.68,-106.13 73.96,-141.81 3.05,-3.79 5.4,-5.76 6.4,-9.26l0 0z"/>
  <path class="fil0 str0" d="M11369.74 14309.12l507.77 2.84 0 0 573.94 0 0 0 -2.87 1103.28 0 0 -1078.84 0 0 0 0 -1106.12 0 0z"/>
  <path class="fil0 str0" d="M12451.45 14311.96l518.1 0 0 0 567.64 0 0 0 -3.11 1103.28 0 0 -1085.5 0 0 0 2.87 -1103.28 0 0z"/>
  <path class="fil0 str0" d="M13537.19 14311.96l530.15 0 0 0 556.28 0 0 0 0 1116.91 0 0 -1089.54 -13.63 0 0 3.11 -1103.28 0 0z"/>
  <path class="fil0 str0" d="M14623.62 14311.96l537.75 0 0 0 460.47 0 0 0 0 533.79 0 0 0 530.16 0 0 -465.11 3.96 0 49 -533.11 0 0 0 0 -1116.91 0 0z"/>
  <path class="fil0 str0" d="M14623.62 15428.87l533.11 0 0 -49 465.11 -3.96 0 0 -11.55 822.38 0 0 0 271.86 -450.18 0 0 40.47 0 0 -533.78 0 0 0 -2.71 -1081.75 0 0z"/>
  <path class="fil0 str0" d="M14623.62 15428.87l2.71 1081.75 0 0 -558.26 0 0 0 -533.99 0 0 0 0 -1095.38 0 0 1089.54 13.63 0 0z"/>
  <path class="fil0 str0" d="M12448.58 15415.24l1085.5 0 0 0 0 1095.38 0 0 -1085.5 4.28 0 0 0 -1099.66 0 0z"/>
  <path class="fil0 str0" d="M10448.28 15403.73l921.46 11.51 0 0 0 1099.6 0 0 -1009.4 -18.37 0 0c-6.84,-17.07 -18.29,-34.18 -20.35,-50.89l-2.13 -2.14c-4.65,-33.25 -46.23,-120.43 -66.14,-145.38 -3.43,-10.69 -18.6,-48.16 -27.03,-54.16 -4.86,-39.43 -22.52,-83.37 -29.15,-124.71 -10.82,-67.39 0.83,-104.18 20.62,-165.33 8.95,-27.65 28.44,-56.93 47.65,-77.67 15.1,-16.29 65.17,-100.56 78.94,-103.34 17.64,-15.54 24.9,-35.68 39.11,-52.02 1,-11.23 17.54,-38.99 24.18,-49.17 27.87,-42.74 44,-146.99 36.27,-197.4 -3.68,-22.96 -8.89,-46.62 -14.03,-70.53l0 0z"/>
  <path class="fil0 str0" d="M11369.74 15415.24l1078.84 0 0 0 0 1099.66 0 0 -0.59 539 0 0 -515.51 0 0 0 -562.74 0 0 -539.06 0 0 0 -1099.6 0 0z"/>
  <path class="fil0 str0" d="M11369.74 16514.84l0 539.06 562.74 0 0 0 0 284.6 0 0 -266.11 -1.42 0 287.18 -873.37 0 0 0c-15.34,-40.63 -41.01,-82.15 -53.34,-122.57 -5.63,-18.44 -31.05,-96.13 -46.23,-104.75 -3.47,-17.77 -51.5,-120.56 -63.29,-128.99 -0.9,-3.14 -2.84,-7.83 -2.84,-11.4 -33.46,-58.68 -92.93,-150.05 -99.56,-217.35 -3.69,-4.62 -11.29,-30.53 -12.09,-37.06 -19.04,-23.7 -17.54,-66.55 -34.85,-88.37 -4.72,-38.31 -29.49,-89.8 -41.96,-127.56 1.6,-8.58 0.71,-6.36 0.71,-12.11 -1.45,-1.95 -1.99,-4.45 -3.55,-6.42 0,-21.45 -13.46,-50.93 -17.78,-72.68 -8.43,-42.5 -17.43,-86.84 -36.98,-126.14 -8.93,-17.97 -12.5,-40.96 -17.07,-60.57 -0.91,-3.94 -2.26,-7.88 -3.83,-11.82l0 0 1009.4 18.37 0 0z"/>
  <path class="fil0 str0" d="M10958.25 18720.79c-0.15,-3.01 -0.26,-6.02 -0.26,-9.05 -12.02,-47.91 -3.56,-100.85 -3.56,-149.66 8.39,-22.48 0,-73.24 0,-98.34 0,-30.32 4.16,-79.75 -3.56,-108.32l-4.26 -98.34c-0.84,-3.42 -0.71,-6.46 -0.71,-9.98l-26.32 -163.19c-6.34,-39.39 -15.54,-120.4 -35.56,-153.21 0,-30.66 -11.83,-69.45 -15.64,-100.49 -10.74,-13.39 -24.18,-59.25 -24.18,-75.53 -3,-7.87 -1.09,-6.09 -4.27,-9.27 0,-5.29 -13.27,-42.84 -16.35,-44.89 -3.08,-22.05 -22.14,-53.93 -30.58,-76.26l0 0 873.37 0 0 -287.18 266.11 1.42 0 0 9.04 1382.29 0 0 -983.27 0 0 0z"/>
  <path class="fil0 str0" d="M14068.07 16510.62l18.85 1088.5 0 0 -1062.38 -1.21 0 0 0 -544.01 -576.55 0 0 0 0.59 -539 0 0 1085.5 -4.28 0 0 533.99 0 0 0z"/>
  <path class="fil0 str0" d="M11932.48 17053.9l515.51 0 0 0 576.55 0 0 544.01 0 0 0 1106.27 0 0 -533.31 9.48 0 0 -549.71 7.13 0 0 -9.04 -1382.29 0 0 0 -284.6 0 0z"/>
  <path class="fil0 str0" d="M13024.54 17597.91l1062.38 1.21 0 0 0 1106.37 0 0 -524.81 -1.31 0 0 -537.57 0 0 0 0 -1106.27 0 0z"/>
  <path class="fil0 str0" d="M14086.92 17599.12l1075.55 0 0 0 -1.24 1106.37 0 0 -537.72 0 0 0 -536.59 0 0 0 0 -1106.37 0 0z"/>
  <path class="fil0 str0" d="M14086.92 17599.12l1075.55 0 -2.36 -22.72 0 0 0 -1065.78 0 0 -533.78 0 0 0 -558.26 0 0 0 18.85 1088.5 0 0z"/>
  <path class="fil0 str0" d="M15162.47 17599.12l-2.36 -22.72 0 0 996.44 0 0 0 3.57 1124.64 0 0 -514.06 4.45 0 0 -484.83 0 0 0 1.24 -1106.37 0 0z"/>
  <path class="fil0 str0" d="M15621.84 14311.96l634.6 0 0 0 744.47 -0.24 0 0c-4.01,17.28 -6.41,41.33 -10.18,53.69 -11.98,39.22 -18.49,86.67 -18.49,128.28 0,30.98 7.69,57.74 9.25,86.94 1.73,32.57 -45.78,55.58 -56.19,86.94 -14.18,42.72 21.34,72.03 21.34,106.89 -79.12,0 -115.83,-44.09 -192.73,13.54 -3.13,3.56 -5.88,5.09 -6.4,9.27 -52.4,37.4 -29.15,130.24 -29.15,181.72 -5.27,4.2 -34.71,-15.12 -42.67,-18.53l-73.25 -31.36c-38.62,-16.54 -28.91,8.38 -41.96,31.36 -25.23,6.3 -29.32,16.63 -61.16,12.82l-125.16 -14.96c-38.5,-4.6 -30.92,17.24 -38.41,37.06 -11.9,31.52 -77.54,58.79 -80.36,94.78 -0.85,10.84 -3.49,21.01 -7.11,30.8l0 0 -356.16 1.39 0 -276.6 -270.28 0 0 0 0 -533.79 0 0z"/>
  <path class="fil0 str0" d="M16248.28 15120.96c-12.96,34.96 -38.69,65.13 -41.96,103.88 -0.34,11.1 -5.77,26.01 -11.37,35.63 -2.57,30.64 -18.49,66.9 -24.18,98.35 -8.98,49.7 11.12,95.91 1.42,145.37 -5.44,27.79 -12.8,49.56 -12.8,78.39 0,25.73 -1.42,41.78 -14.94,63.43 -13.91,9.75 -29.07,18.91 -39.11,32.78 -13.17,68.28 30.13,196.27 72.54,250.13 27.23,34.59 44.7,50.83 80.36,74.83l43.38 29.21c6.48,4.35 29.2,26.74 30.58,27.08 5.95,-9.94 1.67,-23.55 8.53,-35.63 23.96,-3.36 36.09,19.61 57.61,29.93 19.97,9.59 39.07,1.77 59.73,5.7 29.53,5.61 49.51,28.71 76.81,41.34l93.87 43.47c6,7.66 34.12,39.28 56.33,60.74l0 0 -0.86 286.3 0 0 -270.24 0 0 -152.5 -532.63 0 0 -141.1 -271.06 0 0 0 11.55 -822.38 0 0 0 -530.16 0 0 270.28 0 0 276.6 356.16 -1.39 0 0z"/>
  <path class="fil0 str0" d="M15610.29 16198.29l271.06 0 0 141.1 532.63 0 0 152.5 270.24 0 0 0 9.96 786.75 0 0 -537.63 1.14 0 296.62 0 0 -996.44 0 0 0 0 -1065.78 0 0 0 -40.47 450.18 0 0 -271.86 0 0z"/>
  <path class="fil0 str0" d="M16685.08 16205.59c12.46,12.03 23.07,20.88 26.88,20.5 53.98,-5.5 174.46,-171.04 204.1,-215.93 26.44,-40.03 55.19,-91.57 88.18,-126.14 13.32,-13.95 59.81,-84.58 75.38,-87.65 4.64,18.34 -3.59,38.33 -4.26,56.3 -0.76,20.47 3.37,41.17 17.78,8.55 3.03,-6.88 10.64,-32.87 19.91,-17.82 6.86,11.16 10.86,38.28 26.31,16.4 15.58,-22.05 24.21,-51.58 41.96,-71.98 9.71,-8.95 10.29,-24.98 12.8,-37.77 5.64,-1.2 10.07,-2.59 13.6,-4.18l0 0 0 138.91 797.83 -22.85 0 0 22.83 1111.7 -32.78 0 0 0 -530.53 0 0 269.38 -239.48 0 0 35.63 0 0 -531.41 0 0 0 -9.96 -786.75 0 0 0.86 -286.3 0 0z"/>
  <path class="fil0 str0" d="M17995.6 16973.63l32.78 0 -22.83 -1111.7 0 0 1147.5 -42.86 0 0c-0.38,18.25 0.4,35.95 8.13,51.41l9.96 200.97 4.26 9.26c4.65,50.67 -0.64,99.48 4.98,151.08 6.12,12.24 6.05,27.11 12.09,39.19 8.94,100.17 47.83,207.67 77.52,304.29 1.73,-2.89 1.19,1.2 1.42,3.57 23.22,29.11 12.79,76.74 39.11,109.74 7.4,58.63 0.94,117.52 11.38,176.73 5.96,33.78 6.97,53.53 5.69,87.66 -1.26,33.87 5,59.6 7.11,91.93 1.09,9.09 1.49,21.5 4.27,29.93 0,69.71 -8.85,141.76 1.42,210.94 5.39,36.3 10.72,71.81 19.92,107.6 4.84,18.8 12.66,38.04 18.44,57.3l0 0 -1101.54 40.33 0 0 0 -397.64 -281.61 0 0 -119.73 0 0z"/>
  <path class="fil0 str0" d="M16694.18 17278.64l531.41 0 0 0 2.37 1107.16 0 0 -516.88 2.83 0 303.89 0 0 -550.96 8.52 0 0 -3.57 -1124.64 0 0 0 -296.62 537.63 -1.14 0 0z"/>
  <path class="fil0 str0" d="M17225.59 17278.64l0 -35.63 239.48 0 0 -269.38 530.53 0 0 0 0 119.73 281.61 0 0 397.64 0 0 17.43 851.6 0 0 -250.19 14.86 0 0 -816.49 28.34 0 0 -2.37 -1107.16 0 0z"/>
  <path class="fil0 str0" d="M15646.06 18705.49l514.06 -4.45 0 0 550.96 -8.52 0 0 35.72 1093.15 0 0 -1055.28 25.81 0 0 -45.46 -1105.99 0 0z"/>
  <path class="fil0 str0" d="M14623.51 19805.83l1068.01 5.65 0 0 -45.46 -1105.99 0 0 -484.83 0 0 0 -537.72 0 0 0 0 1100.34 0 0z"/>
  <path class="fil0 str0" d="M13562.11 18704.18l524.81 1.31 0 0 536.59 0 0 0 0 1100.34 0.02 -2.87 -267.03 0 0 0 -794.39 0 0 0 0 -1098.78 0 0z"/>
  <path class="fil0 str0" d="M12491.23 18713.66l533.31 -9.48 0 0 537.57 0 0 0 0 1098.78 0 0 -511.62 12.05 0 0 -562.79 0 0 0 3.53 -1101.35 0 0z"/>
  <path class="fil0 str0" d="M11941.52 18720.79l549.71 -7.13 0 0 -3.53 1101.35 0 0 -494.2 -2.97 0 0 -1159.97 0 0 0c1.6,-14.67 14.22,-38.49 19.2,-53.45 23.04,-69.27 26.54,-148.95 34.85,-221.63l12.8 -111.88c4.21,-36.77 22.48,-73.1 27.03,-109.03l0.71 -12.83c-0.89,-6.96 -3.54,-13.24 -4.27,-19.96l-1.42 -2.85c-5.01,-56.05 -19.91,-118.26 19.2,-168.89 3.13,-9.42 9.56,-17.87 10.67,-27.79 17.09,-34.32 13.02,-83.15 12.09,-121.15l-4.27 -171.74 2.13 -21.38c-0.99,-5.31 -0.77,-11.34 -2.13,-16.39 0,-10.87 -1.3,-21.55 -1.87,-32.28l0 0 983.27 0 0 0z"/>
  <path class="fil0 str0" d="M12487.7 19815.01l562.79 0 0 0 0 1095.91 0 0 -1056.99 5.33 0 0 0 -1104.21 0 0 494.2 2.97 0 0z"/>
  <path class="fil0 str0" d="M11993.5 19812.04l0 1104.21 0 0 -1049.67 -0.3 0 0 0 -550.58 -312.53 0 0 0c7.42,-16.09 14.57,-32.51 21.6,-49.51 23.44,-32.11 27.6,-78.81 49.07,-111.17 8.2,-53.35 48.18,-103.91 52.62,-158.2 16.95,-31.39 20.54,-68.11 31.3,-101.19l41.24 -126.85 6.4 -6.41 0 0 1159.97 0 0 0z"/>
  <path class="fil0 str0" d="M10943.83 20915.95l1049.67 0.3 0 0 12.34 835.21 -59.75 134.82 0 0 -1004.46 0.7 0 0 2.2 -971.03 0 0z"/>
  <path class="fil0 str0" d="M10631.3 20365.37l312.53 0 0 550.58 0 0 -2.2 971.03 0 0 -1394 0.98 0 0c61.97,-39.73 120,-82.33 177.92,-131.16 79.99,-67.45 175.98,-133.6 239.66,-218.78 30.38,-14.3 49.02,-54.4 76.09,-74.11 3.68,-8.11 22.62,-32.86 29.16,-38.48 9.02,-27.19 31.94,-57.63 45.52,-83.38 21.15,-40.07 25.42,-93.34 39.82,-136.11 17.86,-53.06 34.96,-110.84 63.29,-159.63 28.25,-26.03 57.02,-97.25 71.12,-133.98 16.11,-41.99 26.36,-91.18 51.2,-126.13 8.77,-2.19 45.91,-55.68 53.34,-65.56l73.96 -98.35c1.31,-1.52 6.05,-8.19 8.53,-9.97 2.29,-6.92 23.55,-37.84 29.16,-41.33 18.34,-40.62 55.58,-76.28 78.23,-115.45 17.31,-29.94 32.5,-59.46 46.67,-90.17l0 0z"/>
  <path class="fil0 str0" d="M11993.5 20916.25l1056.99 -5.33 0 0 -0.71 974.59 0 0 -1103.69 0.77 0 0 59.75 -134.82 -12.34 -835.21 0 0z"/>
  <path class="fil0 str0" d="M13562.11 19802.96l794.39 0 0 0 0 1106.64 -239.23 1.32 -1066.78 0 0 0 0 -1095.91 0 0 511.62 -12.05 0 0z"/>
  <path class="fil0 str0" d="M14356.5 19802.96l267.03 0 -0.02 2.87 1068.01 5.65 0 0 0.51 1098.12 0 0 -528.87 0 0 0 -806.66 0 0 0 0 -1106.64 0 0z"/>
  <path class="fil0 str0" d="M13050.49 20910.92l1066.78 0 0 0 1 973.84 0 0 -1068.49 0.75 0 0 0.71 -974.59 0 0z"/>
  <path class="fil0 str0" d="M14117.27 20910.92l1 973.84 0 0 42.53 -0.02 -4.27 194.94 -0.19 -0.13 1006.05 -39.49 0 0 0.77 -1130.46 0 0 -806.66 0 0 0 -238.84 0.6 -0.39 0.72z"/>
  <path class="fil0 str0" d="M15163.16 20909.6l528.87 0 0 0 817.25 -22.21 0 0 15.85 1099.18 0 0 -1362.74 53.49 0 0 0.77 -1130.46 0 0z"/>
  <path class="fil0 str0" d="M15691.52 19811.48l1055.28 -25.81 0 0 265.26 -10.69 0 0 25.62 1101.5 0 0 -528.4 10.91 0 0 -817.25 22.21 0 0 -0.51 -1098.12 0 0z"/>
  <path class="fil0 str0" d="M17823.84 21032.7c-8.23,3.15 -18.12,4.71 -18.12,11.47l1.42 0.71c7.85,32.1 43.14,20.92 66.85,24.23 3.59,18.38 2.24,32.49 -15.65,44.9 -26.58,18.43 -35.37,62.92 -67.56,69.12 -34.64,6.66 -58.2,21.32 -83.2,46.32 -33.18,22.55 -22.76,47.55 -22.76,79.11 -16.36,4.03 -4.35,38.37 -19.91,42.75 -1.32,0.37 -43.61,-20.93 -54.05,-22.8 -137.78,-24.8 -68.68,178.62 -137.25,207.38 -36.74,15.4 -81.17,-1.78 -96.72,49.17 -13.81,45.21 -24.9,82.24 -63.29,111.17 -1.36,2.3 -2.5,4.41 -4.27,6.41 -19.64,4.84 -39.44,-2.11 -52.63,19.95 -20.76,34.69 4.41,84.7 16.36,117.59 3.98,10.96 28.63,89.32 15.64,91.93 -25.78,-25.96 -34.21,-40.43 -71.11,-53.45 -27.92,-9.84 -41.05,10.87 -24.18,33.49 6.73,9.03 13.63,14.5 19.67,18.42l0 0 -32.11 30.27 -655.84 25.73 0 0 -15.85 -1099.18 0 0 528.4 -10.91 0 0 589.54 -16.17 196.62 172.39 0 0z"/>
  <path class="fil0 str0" d="M17227.96 18385.8l816.49 -28.34 0 0 35.51 1377.34 0 0 -1067.9 40.18 0 0 -265.26 10.69 0 0 -35.72 -1093.15 0 0 0 -303.89 516.88 -2.83 0 0z"/>
  <path class="fil0 str0" d="M18351.7 20083.55c-5.9,2.71 -14.8,3.39 -21.33,4.63 -6.2,1.17 -11.85,2.95 -17.78,4.99 -6.98,2.39 -13.12,6.81 -20.98,8.91 -7.59,2.02 -21.69,11.7 -21.69,19.95 8.58,8.58 46.42,-5.94 55.83,-9.98 10.09,-4.32 34.45,-15.4 35.55,-28.15l-9.6 -0.35zm-1339.64 -308.57l1067.9 -40.18 0 0 467.7 -17.97 0 0c0.63,1.39 1.06,2.74 1.22,3.99 11.42,14.31 -2.06,105.09 -9.25,124 -16.19,42.62 -13.37,86.03 -33.42,126.13 -6.53,4.08 -13.23,11.84 -21.34,12.83 -1.95,1.56 -3.2,2.55 -5.69,2.85 -10.56,8.47 -23.83,9.78 -32.71,19.95 -9.6,38.64 -15.58,60.71 -58.32,64.14l-97.42 7.84c-25.8,25.7 -62.55,58.37 -97.43,71.26 -56.9,21.02 -98.96,15.96 -134.41,72.69l-44.09 70.55c-13.52,21.63 -4.28,65.47 -30.58,81.95 -14.28,18.23 -62.25,39.81 -64.72,57.73 -2.56,18.5 6.51,28.52 17.07,42.04 10.83,13.88 3.84,23.09 2.13,37.06 -13.88,11.6 -6.41,107.86 2.14,121.14 12.04,18.72 14.98,38.57 11.37,61.29 -3.09,19.4 0.64,68.84 -8.53,82.67 -0.64,20.87 -11.17,59.19 -17.07,80.52 -11.07,40.05 -13.33,25.24 -41.96,17.11 -5.18,-37 -12.54,-82.37 -24.17,-117.59l-1.43 0c-5.24,7.02 -22.17,59.72 -23.47,69.84 -2.88,22.25 6.9,46.89 1.43,69.12 -8.94,36.27 -12.94,51.48 -2.14,88.37 3.48,11.88 5.82,32.55 -2.13,42.76 -2,2.57 -5.3,4.25 -8.9,5.63l0 0 -196.62 -172.39 -589.54 16.17 0 0 -25.62 -1101.5 0 0z"/>
  <path class="fil0 str0" d="M18294.64 18342.6l572.83 -9.27 18.95 718.88 0 0c-9.77,2.96 -17.34,7.8 -12.55,20.12 2.81,7.25 -29.51,9.78 -36.27,12.11 -40.58,14 -7.13,49.43 -51.91,56.3 -61.91,9.51 -96.52,-1.65 -107.38,74.11 -4.07,28.4 -1.02,47.41 27.02,59.86 32.43,14.41 16.23,16.88 31.29,37.06l25.6 0 0.71 0.71c1.73,7.08 -12.8,26.9 -12.8,39.91 0,4.58 18.31,74.56 0.71,64.14 -29.9,-17.69 -97.85,-30.16 -126.58,-1.43 -12.3,12.3 -14.32,37.45 -22.76,53.45 -12.65,24.01 -31.46,43.98 -39.82,71.26l-5.69 7.84c-3.34,30.66 -26.82,64 -31.29,97.63 -2.13,16.01 0.31,33.1 7.11,47.75 3.16,6.79 12.44,16.23 15.85,23.8l0 0 -467.7 17.97 0 0 -35.51 -1377.34 0 0 250.19 -14.86 0 0z"/>
  <path class="fil0 str0" d="M19295.59 19291.1c-10.81,2.52 -31.63,-21.6 -44.8,-25.65 -24.71,-7.59 -55.13,-0.97 -80.36,-10.69 -8.37,-3.23 -34.05,-5.3 -43.38,-6.41 -14.07,-1.69 -40.95,-19.47 -47.65,-17.82 -2.35,16.82 7.53,32.46 4.98,49.17 -2.27,14.81 -41.42,68.59 -32.72,74.83 4.27,3.07 27.53,-1.41 36.27,1.42 15.16,4.92 24.44,29.07 34.14,42.05 17.58,23.55 -1.4,24.09 -21.34,32.07 -43.97,17.59 -68,35.73 -76.8,86.22 -9.29,53.34 73.07,-21.49 83.2,-28.5 19.38,-13.4 42.74,-17.63 59.74,-35.63l75.38 -79.82c20.05,-21.23 35.78,-48.72 56.18,-69.12l-2.84 -12.12zm83.16 -1840.43c3.47,11.56 6.22,23.14 7.16,34.63 -2.51,20.64 12.61,49.69 13.51,72.69 1.47,37.63 22.76,72.08 22.76,111.88 0,24.16 5.33,97.4 25.6,112.6 8.85,14.2 20.88,26.92 30.58,40.62 9.76,13.77 15.9,35.1 26.31,47.03 4.05,12.23 12.01,29.3 20.62,39.2 6.59,19.79 15.88,37.74 26.32,55.58 26.68,34.06 17.9,66.78 27.02,104.05 -2.33,3.25 -3.63,6.98 -7.11,7.83 -0.22,0.91 -0.49,1.23 -0.71,2.14 -15.65,3.85 22.04,55.81 22.04,66.99 0,38.78 -64.33,89.49 -88.89,118.3 -17.08,20.02 -17.65,54.28 -23.47,79.1 -7.31,31.18 -22.76,52.57 -22.76,87.65 -4.48,30.74 14.65,88.31 -1.42,115.45l0 2.85 -0.71 2.13c-7.69,9.7 -6.1,29.55 -15.65,40.62 -5.28,37.74 -10.68,56.59 -5.68,96.21 1.2,1.51 1.19,1.67 1.42,3.56l2.13 2.85c3.66,29.87 51.36,84.94 26.31,118.3 -0.87,9.82 -13.84,27.64 -22.04,32.78 -4.76,9.56 -11.82,22.32 -18.49,30.64 -0.27,1.96 -0.84,2.66 -2.14,4.28 -2.44,19.85 -0.49,39.72 -2.13,59.86 3.87,20.08 -5.88,46.98 -14.93,64.14 -22.94,43.53 -22.39,88.37 -30.58,136.11 -4.23,24.63 -4.59,55.36 -14.23,78.39 -7.03,16.82 -23.5,30.36 -29.86,46.32 -7.4,1.03 -14.05,12.83 -22.76,12.83 -6.56,-20.25 -99.61,-44.49 -120.9,-47.04 -11.83,-1.42 -24.29,-1.23 -36.27,0.72 -17.14,2.78 -27.12,-28.26 -44.09,-24.23 -16.77,3.99 -30.64,13.54 -49.07,13.54l-0.71 -0.72c0,-41.38 91.23,-67.99 63.29,-126.84 -7.3,-15.37 -16.68,-25.69 -35.55,-17.82 -35.48,14.78 -28.32,-6.33 -56.9,-20.67 -23.51,1.53 -45.11,-27.79 -72.54,-27.79 -18.12,22.72 -28.85,15.13 -54.04,21.38 -4.42,1.1 -9.32,2.06 -13.77,3.4l0 0 -18.95 -718.88 -572.83 9.27 0 0 -17.43 -851.6 0 0 1101.54 -40.33 0 0z"/>
  <path class="fil0 str0" d="M17324.97 15466.42c-13.16,-26.43 -28.19,-19.1 -51.91,-24.94 0,-13.43 -9.54,-23.35 3.56,-34.92 12.65,-11.19 7.39,-19.16 0,-32.07 -7.21,-12.62 -20.71,-21.58 -23.47,-0.71 -1.87,14.09 3.61,28.4 4.26,42.76 1.06,23.62 -22.73,28 -27.73,48.46 -3.03,12.44 -11.39,37.32 -3.56,49.17 5.29,7.99 18.9,-0.7 24.89,-2.85 32.35,-11.61 78.23,26.38 78.23,-32.78l-4.27 -12.12zm-34.61 -640.65c-5.78,1.35 -8.32,-6.2 -11.02,-10.33 -3.11,-4.78 -8.99,-8.55 -13.15,-12.47 -7.21,-6.81 -10.54,6.81 -11.38,11.76 -1.29,7.63 -4.62,15.28 -4.62,22.8 5.9,7.51 7.28,17.81 19.2,17.81 7.76,0 20.44,-8.32 22.04,-16.74l-1.07 -12.83zm-82.64 920.1c18,-8.15 12.71,-22.09 24.8,-47.84 14.36,-30.6 33.2,-110.87 54.76,-132.55 7.08,-7.11 18.51,0.87 27.74,-12.83 14.42,-21.38 33.73,-45.38 44.8,-67.7 18.45,-37.17 6.91,-84.55 49.07,-93.35 44.98,-9.4 85.46,-63.93 106.67,-101.2 1.27,-14.3 -2.74,-42.36 -19.2,-47.03 -1.43,-3.36 -5.28,-4.16 -6.4,-6.41 -26.54,0 -52.45,-5.91 -78.22,-7.13 -35.27,-1.66 -47.63,-15.07 -75.39,-24.23 0,-9.46 60.08,-7.84 68.98,-7.84 119.49,0 214.71,1.85 256.73,-130.41 18.24,-57.43 -14.67,-63.43 51.21,-73.4l174.23 -26.37c47.01,3.86 90.19,-60.88 112.36,-53.44 90.04,30.22 169.77,3.97 187.75,-100.48 9.06,-52.63 10.94,-34.94 58.31,-32.79 52.16,2.36 53.26,-40.53 85.34,-66.27 7.57,0 14.07,1.43 22.05,1.43 15.47,0 10.12,23.91 34.84,12.82 19.35,-8.69 20.52,-17.1 43.38,-17.1 47.8,4.59 70.44,56.92 122.32,77.68 51.6,20.66 107.61,27.22 155.04,57.01 5.38,11.88 28.51,39.9 39.11,48.46 16.91,2.08 33.54,0.73 49.07,8.55 8.63,15.14 29.96,31.4 42.67,44.18 18.6,18.69 26.69,43.17 41.96,62.71 1.38,16.96 14.36,34.34 16.35,50.6 14.53,16.51 33.57,61.75 40.54,82.66 16.92,25.88 37.6,49.28 43.38,79.82 9.21,48.58 16.4,80.46 55.47,114.02 36.88,31.69 9.24,89.42 32.71,119.01 42.41,8.34 28.76,32.13 39.83,69.83 9.45,32.22 7.58,73.74 29.87,99.06 14.03,41.08 -13.4,74.52 6.4,119.72 10.02,22.89 7.32,48.99 6.8,74.01l0 0 -1147.5 42.86 0 0 -797.83 22.85 0 -138.91 0 0z"/>
  <path class="fil0 str0" d="M11450.82 11571.19c18.5,-18.58 63.59,-20.66 89.6,-20.66 0,-12.8 -54.63,-45.57 -59.02,-69.84 -12.36,-68.31 28.06,-132.4 4.97,-201.67 -14.48,-43.44 -95.53,-41.61 -131.56,-35.64 -44.96,7.46 -55.29,23.14 -48.36,69.84 4.22,28.44 -0.59,65.61 6.4,91.93 9.9,37.22 62.38,63.79 81.07,101.19 6.02,12.04 36.65,67.06 46.23,70.56l10.67 -5.71zm-276.64 184.57c8.5,-0.64 51.09,-16.16 54.76,-23.51 0.91,-0.22 1.22,-0.49 2.13,-0.71l0.71 -0.72 0 -1.42c0.16,-0.05 -11.21,-22.96 -12.8,-29.22 -3.82,-14.97 -4.84,-51.92 12.8,-57.01 11.44,-3.29 45.72,8.73 49.78,5.7 -3.3,-13.42 -21.94,-21.54 -33.42,-27.79 -11.6,-6.33 -25.03,-7.68 -36.98,-14.97 -12.81,-7.83 -23.82,-12.69 -36.98,-19.24 -8.36,-4.17 -44.76,23.56 -52.63,29.93 -17.59,14.26 -16.03,36.07 -22.76,56.3 -7.56,22.76 -21.69,51.02 -4.26,72.69 3.13,3.88 21.37,16.64 26.31,18.53 11.4,4.35 28.77,0 41.25,0l12.09 -8.56zm632.93 -1396.75c-28.31,-15.22 -64.69,-54.09 -100.99,-44.89l0 2.13c4.97,1.26 21.4,49.32 24.89,57.73 13.23,31.81 33.1,54.82 48.36,85.51 7.66,15.43 16.98,25.62 22.05,42.05 3.64,11.83 8.4,23.85 11.38,35.63l0.71 0.71c16.39,4.04 19.39,-71.01 20.62,-82.66 2.16,-20.53 2.77,-67.81 -12.8,-83.38l-14.22 -12.83zm150.76 -197.4c-5.45,2.11 -6.6,-1.1 -12.09,-1.42 -12,-0.72 -20.46,0.71 -31.29,7.12 -16.18,9.56 3.65,25.71 11.38,32.79 5.66,5.2 11.51,11.44 16.36,17.1 2.77,3.25 6.53,15.72 9.24,16.39 0.5,3.61 3.08,6.4 4.27,9.98 1.65,4.99 2.55,13.54 9.24,13.54 4.73,0 8.52,-9.03 9.25,-12.83 2.08,-10.9 -2.13,-22.84 -4.98,-32.78 -1.55,-5.38 -2.71,-10.99 -4.27,-16.39 -1.22,-4.26 -4.26,-9.37 -4.26,-13.54l-2.85 -19.96zm-74.95 2215.69l395.44 0.47 0 0c-12.92,-43.13 -40.29,-83.12 -40.29,-128.15 0,-37.31 -2.09,-108.16 15.64,-139.68 13.65,-24.25 32.7,-52.66 38.41,-80.53 2.02,-9.84 0.97,-30.2 7.82,-37.05 16.33,0 33.83,-4.99 50.49,-4.99 13.29,-13.29 -5.45,-64.66 -1.42,-86.23 3.06,-28.01 0.48,-56.27 10.67,-82.66 6.57,-17.01 11.25,-41.49 -2.85,-55.59 -8.06,0 -17.09,0.48 -24.89,0 -14.89,14.89 -28.28,51.23 -41.96,70.55 -19.27,27.19 -26.1,-0.61 -43.38,-4.99l-0.71 -0.71c0,-22.66 29.5,-77.54 49.07,-90.5 40.55,-26.88 59.75,-71.24 66.85,-115.45 3.05,-18.97 13.71,-35.46 18.49,-54.87 13.28,0 50.49,75.7 50.49,32.07 0,-31.38 -8.53,-54.52 -15.64,-83.38 -1.89,-0.46 -1.92,-1.43 -4.27,-1.43 -14.23,43.91 -42.81,-48.11 -44.8,-58.43 -10.07,-16.03 1.58,-51.82 -15.65,-55.59 -17.77,-3.9 -30.67,-51.29 -25.6,-66.98 5.13,-15.85 22.04,-23.24 22.04,-42.76 0,-21.95 22.63,-40.62 43.39,-40.62 43.5,0 42.84,54.16 59.02,54.16 0,-1.44 -0.38,-1.06 0.71,-1.43 0,-26.62 -8.95,-76.71 10.67,-94.78 31.69,-29.21 74.2,-50.86 42.67,-98.34 -8.4,-12.64 -17.51,-68.03 -30.58,-57.72 -11.2,8.82 -26.02,20.38 -32.71,32.78 -10.96,20.33 -13.94,29.34 -28.45,48.46 -23.36,26.32 -84.88,59.25 -107.38,14.25 -3.28,-0.8 -2.86,-1.6 -6.41,-0.71 -20.66,83.85 -106.64,161.61 -120.89,244.43 -5.84,33.91 -5.55,70.61 -31.29,97.63 -31.99,33.59 -75.7,48.58 -111.65,77.68 -50.79,28.84 -35.74,122.11 -88.19,135.4 -4.44,18.05 10.67,59.08 10.67,82.66 0,37.2 -21.8,62.83 -44.09,90.5 -36.04,44.72 -100.23,76.24 -157.88,58.44 -39,-12.03 -44.15,-25.22 -64.71,-58.44 -37.85,-61.19 -86.71,-23.1 -115.92,18.53 -14.98,23.99 -29.89,47.72 -49.78,67.7 -5.89,46.64 -30.75,107.18 -88.19,98.34 -42.56,-6.54 -66.76,-36.34 -108.8,-36.34 -58.66,43.48 -49.13,114.53 -46.23,181.72 2.76,63.79 7.58,113.58 -3.29,172.58l0 0 605.36 0 0 0z"/>
  <path class="fil0 str0" d="M13181.7 6011.86l10.78 1691.01 0 0 -1428.68 0 0 0 0 -867.35 0 0 -0.02 -603.15 0 0c34.55,0.73 70.27,-0.39 100.93,16.2 45.15,2.96 84.36,26.31 132.99,24.94l227.57 -6.41c65.1,-1.83 129.99,13.54 194.85,13.54l7.83 -2.14c18.53,6.91 50.13,-5.7 69.69,-5.7 107.53,0 173,-28.68 268.82,-71.27 43.11,-19.15 87.68,-36.49 128.01,-61.99 50.95,-32.2 114.11,-76.43 171.38,-94.07 38.53,-13.21 77.14,-24.55 115.85,-33.61l0 0z"/>
  <path class="fil0 str0" d="M16661.46 8718.54c20.77,0 66.89,-8.51 83.92,-19.95 39.61,-26.63 29.14,-34.89 60.45,1.42 14.77,17.12 22.05,-9.24 22.05,28.51 0,32.5 38.58,3.17 44.09,-13.54 11.38,0 18.5,49.25 44.09,54.16 18.94,3.64 50.19,15.9 66.85,14.96 14.59,-0.82 16.66,-5.45 33.42,-4.27 15.34,1.07 29.09,-20.82 43.38,-17.11 27.87,7.23 30.75,-1.06 43.38,-29.21 16.85,-37.53 28.06,-45.88 30.58,-90.51 1.86,-32.87 67.16,-61.71 55.47,-96.92 -6.47,-19.52 -33.23,-35.33 -37.69,-53.44 -13.02,0 -14.94,18.79 -30.58,19.24 -24.55,0 -24.01,-20.93 -37.69,-35.63 -16.49,-17.7 -31.76,-9.03 -46.22,-20.67 -11.83,-9.51 -6.29,-100.66 -21.34,-126.85 -15.36,-26.71 -40.38,-35.24 -52.62,-66.99 -22.64,-58.69 -12.48,-48.4 -73.25,-61.28 -18.72,-3.96 -33.24,-27.69 -47.65,-38.48 -16.26,-12.16 -70.33,5.62 -91.03,7.12 -33.23,2.42 -71.02,-15.69 -99.56,-12.11 -30.26,3.79 -32.57,53.34 -59.03,59.86 1.65,8.41 46.9,31.95 56.18,34.21 23.89,5.84 39.36,1.01 61.87,2.85 40.75,3.33 -16.39,102.75 -17.06,114.02 -1.34,22.35 -62.11,0.6 -76.81,11.4 -9.16,6.74 -26.38,45.96 -38.4,35.63 -35.35,18.31 -38.23,-32.34 -61.87,27.08 -9.24,23.21 -61.63,123.14 -88.9,114.73 -6.26,-1.93 -31.35,-49.99 -36.98,-59.14 -13.79,-22.43 -0.12,-37.72 -5.69,-59.87 -11.21,-2.76 -23.21,-8.23 -34.13,-10.69 -21.07,-4.74 -20.54,2.02 -24.89,20.67 -6.12,26.26 -40.48,41.9 -46.23,69.13 -4.76,22.5 -22.77,65.88 -16.35,86.94 4.99,16.35 49.05,-9.68 61.87,-11.41 22.43,-3.02 21.47,18.46 25.6,32.79 4.38,15.24 20.11,21.66 34.13,24.94 36.51,8.53 43.25,43.54 70.41,59.86 50.63,30.41 32.92,-84.72 93.87,-19.96 15.69,16.66 29.59,26.04 49.07,10.69 12.64,-9.97 18.38,12.83 33.43,12.83l29.86 4.99zm-91.73 -404.06c-4.47,-8.29 -8.37,-18.02 -12.09,-26.37 -2.67,-6.02 -11.48,-2.14 -15.65,-2.14 -2.71,2.19 -6.28,3.16 -9.24,4.99 -3.37,2.08 -5.91,4.49 -9.25,6.42 -0.72,2.94 -2.13,4.02 -2.13,7.84 0,3.7 1.22,6.5 1.42,9.97 0.49,8.46 -2.13,15.56 -2.13,24.23 0,11.13 4.2,17.39 13.51,22.09 11.57,5.85 24.77,-20.46 32,-25.65l3.56 -21.38zm-105.26 -157.49c-11.16,-2.56 -28.37,-7.19 -39.82,-4.99 -5.72,1.09 -11.52,3.56 -17.78,3.56 -10.09,0 -21.78,0.83 -17.07,15.68 3.01,9.48 14.5,8.93 22.05,6.41 15.03,-5.01 31.28,-7.16 44.8,3.57 5.06,4.01 10.9,6.81 15.65,10.69 2.29,1.86 9.11,5.16 9.95,6.41 3.89,0 7.83,-2.01 7.83,-6.41 0,-3.19 -5.98,-17.73 -9.25,-18.53l-16.36 -16.39zm-450.16 56.3c-2.3,-4.3 -10.77,-24.26 -13.51,-24.95 -0.97,-3.94 -15.58,2.91 -17.78,3.57 -8.14,2.48 -17.55,2.92 -25.6,5.7 -11.77,4.08 18.19,34.04 21.33,37.06 10.48,10.04 21.17,15.56 30.58,27.07 4.59,5.63 22.88,20.81 29.16,18.53 15.3,-5.58 -11.38,-40.87 -11.38,-52.02l-12.8 -14.96zm-308.64 -624.27c0,-68.58 -8.13,-136.29 -81.78,-149.65 -15.72,-2.85 -109.05,-3.34 -117.34,7.13 -5.12,6.45 14.61,76.75 17.06,89.08 10.92,55 69.26,88.22 78.23,140.38 4.74,27.54 14.41,42.08 32,62.72 10.7,12.54 -9.67,60.57 12.09,60.57 14.08,-17.65 15.73,-45.21 42.67,-53.45 29.35,-8.99 42.51,-33.25 51.2,-59.15 9.63,-28.73 -5.62,-46.21 -21.33,-68.41l-12.8 -29.22zm-52.63 -642.79c-7.97,24.03 -27.44,26.37 -49.07,26.37 -31.13,37.46 -44.8,93.87 -44.8,146.09 0,54.29 51.15,73.61 78.94,114.73 19.62,29.05 28.79,55.7 34.85,90.51 3.9,22.41 50.87,112.85 44.8,118.29 -11.54,10.36 -37.25,-0.78 -44.8,-11.4 -15.54,-2.17 -28.99,-9.26 -46.94,-9.26 -22.58,-18.24 -41.96,-26.56 -41.96,-60.58 0,-29.89 3.21,-60.39 -31.29,-67.7 -91.79,-19.45 -86.9,-120.81 -105.96,-190.27 -11.38,-41.45 -11.31,-103.02 -32.71,-138.96l-2.85 0c-7.19,12.61 -9.81,44.89 -25.6,44.89l-3.56 -3.56c-24.35,-27.71 -39.09,-52.09 -51.2,-85.52 -12.43,-34.35 7.86,-24.78 35.56,-30.64 58.65,-12.43 122.65,-172.95 163.56,-152.5 6.14,43.73 60.94,35.66 91.74,34.21 16.57,-0.78 31.91,-4.28 49.07,-4.28 24.57,0 21.68,11.37 35.56,20.67 0,31.05 -28.58,32.32 -39.82,57.72 -7.35,16.59 -9.25,54.9 -9.25,73.4l-4.27 27.79zm-190.36 1624.77c7.59,0.36 14.41,-0.73 19.69,-4.25 21.47,-14.34 27.03,11.2 43.38,19.24 7.63,3.74 56.42,16.44 61.87,12.12 5.9,-4.66 -3.82,-28.25 11.38,-19.25 13.55,8.01 29.48,14.26 45.51,14.26 27.21,0 28.27,-12.48 47.65,-25.66 50.63,-4.54 65.91,35.92 117.34,43.47 30.61,4.5 106.93,15.37 131.56,30.65 10.39,6.45 56.89,37.51 56.89,32.78 0,-33.57 -17.68,-62.28 37.7,-59.15 17.32,0.98 38.37,-5.67 51.91,-2.85 25.84,5.4 31.76,7.95 56.18,-3.56 35.08,-16.52 30.26,34.26 46.94,38.48 7.13,-29.16 16.33,-71.1 17.78,-101.91 2.31,-48.79 6.68,-81.44 -39.83,-104.76 -16.73,-8.38 -46.9,-50.24 -53.33,-47.74 -10.3,3.99 -33.9,4.87 -39.83,12.83 -8.58,11.5 -19.26,37.44 -32.71,13.54 -7.32,-13.03 -27.21,-37.19 -40.54,-40.62 -15.54,-15.6 -34.33,-27.66 -48.36,-42.76 -12.59,-13.54 -21.97,-30.34 -34.13,-43.47 -7.69,-8.29 -21.6,-18.41 -27.03,-27.08 -14.35,-6.55 -42.42,-34.75 -51.91,-47.75 -16.1,-22.03 -16.64,-40.03 -13.51,-65.56 28.82,-33.13 72.51,-42.09 96.71,-78.39 0,-3.47 -0.37,-6.24 -0.71,-9.98 -7.74,-12.93 -30.21,-9.26 -41.24,-21.37 -11.75,-12.89 -29.44,-18.24 -45.52,-24.23 -31.44,-11.7 -99.02,-17.72 -106.67,-59.86 -14.59,-10.53 -8.5,-37.05 -18.49,-47.04 -11.44,0 -20.19,23.09 -33.43,26.37 -12.44,3.09 -23.21,-12.1 -27.02,-22.09 -15.62,-15.79 -26.14,29.15 -49.78,11.4 -24.95,-18.72 -16.76,-36.88 -39.83,0 -7.73,12.35 -24.1,27.9 -37.69,33.49 -22.58,9.28 -37.76,-0.04 -59.73,-7.84 -41.46,-14.71 -34.85,-28.48 -34.85,-69.83 0,-17.89 -14.05,-2.14 -22.05,-2.14 -2.68,-10.89 -12.4,-29.67 -6.4,-40.62 9.55,-17.41 38.99,2.37 37.69,-27.79 -0.64,-15 6.54,-9.34 17.78,-17.11 12.23,-8.47 22.52,-17.96 32.01,-29.93 17.85,-22.49 28.08,6.46 24.17,-33.49 -3.89,-6.54 -2.14,-21.94 -0.71,-29.22 13.07,-3.22 20.17,-4.01 36.27,0 21.58,5.37 14.65,14.58 26.32,29.93l1.42 -0.71c0,-1.44 -0.38,-1.06 0.71,-1.43 0,-27.94 -2.47,-51.81 -17.07,-75.53 -11.98,-19.48 -23.6,-63.31 -39.11,-76.97 -11.27,-9.91 -23.47,-27.88 -23.47,-44.18 0,-29.29 -12.12,-60.99 -13.51,-91.93 -1.68,-37.14 16.83,-92.24 -5.69,-123.29l-49.07 -67.7c-14.46,-34.6 -20.63,-62.62 -20.63,-100.48 0,-27.67 4.36,-54.12 -10.66,-76.96l-81.07 -123.29c-15.41,-23.43 -5.93,-51.64 -32.01,-66.98 -30.51,-17.96 -67.61,-25.36 -98.14,-47.75 -15.6,-11.45 -28.56,3.56 -45.51,3.56 -20.18,27.22 -42.84,61.22 -82.49,46.33 -59.06,9.78 -115.92,66.79 -115.92,128.27 0,75.58 -69.43,82.28 -90.32,17.81 -13.1,0 0.89,49.89 -37.69,49.89 -32.33,0 -50.3,26.33 -80.36,37.77 -67.55,25.73 -113.08,19.78 -113.08,-60.58 0,-37.32 48.06,27.8 63.3,27.8 0,-32.88 -37.24,-55.99 -59.03,-76.25 -34.08,-31.67 -41.8,-65.43 -64.71,-102.62 -5.14,-8.34 -69.65,13.08 -91.74,7.84 -10.01,-2.38 -25.39,-16.27 -32.72,-15.68 -5.93,0.48 -41.85,36.89 -49.78,42.76 -20.74,15.34 -52.71,29.29 -77.51,37.05 -30.43,6.12 -71.21,38.04 -103.83,49.17 -31.07,10.59 -55.51,11.95 -87.48,8.56 -39.19,-4.15 -69.79,-37.71 -78.93,-74.83 -59.57,0 -150.53,33.66 -177.79,-48.46 -6.14,-18.49 -16.24,-4.32 -33.43,-8.55 0,64.33 -153.3,7.11 -177.79,-2.85 -38.55,-25.7 -61.16,-54.07 -61.16,-104.04 0,-34.76 41.53,-80.53 76.81,-80.53 0,-19.16 -9.24,-40.03 -15.65,-57.73 -7.62,-21.07 -8.78,-49.39 -12.09,-71.97 -5.34,-36.48 -5.86,-133.06 9.25,-165.33 0,-169.07 21.14,-343.47 172.81,-443.97 1.79,-1.19 13.18,-12.01 8.53,-13.54 0,-2.47 -1.66,-2.85 -2.13,-4.27 -35.24,-8.93 -95.67,-3.93 -128.01,12.82l-136.54 35.63c-128.42,-31.95 -254.36,-26.45 -379.12,2.74l0 0 10.78 1691.01 0 0 275.36 0 0 305.56 1698.28 0 0 289.69 295.36 0 1.2 272.88 0 0z"/>
  <path class="fil0 str0" d="M14025.92 8953.71c-1.61,-2.26 -2.39,-2.63 -2.85,-4.99 -0.55,-0.13 -1.03,-0.31 -1.42,-0.71 -2.56,-2.56 -6.98,-5.67 -10.67,-7.84 -2.7,-1.6 -3.77,-1.13 -6.4,-3.57 -4.5,-4.15 -16.2,-4.4 -22.04,-2.85 -4.5,1.2 -8.79,5.17 -6.4,9.98 1.15,2.33 2.69,2.7 4.26,4.28 3.15,3.17 4.71,6.5 8.54,9.26 4.59,3.29 8.27,7.58 12.09,11.4 2.32,2.32 8.55,8.57 9.24,11.4 2.51,0.63 4.03,2.14 7.11,2.14 5.89,0 7.32,-7.75 9.25,-12.11l-0.71 -16.39zm674.17 -354.89c-5.5,-1.26 -13.37,-3.63 -19.2,-2.14 -5.39,1.37 -10.91,6.8 -14.22,11.4 -4.49,6.26 -5.95,17.3 -2.13,24.23 1.95,3.52 3.25,7.46 5.68,11.4 2.51,4.05 6.41,7.66 8.54,11.41 3.99,0.65 6.48,4.98 12.09,4.98 4.12,0 7.58,-0.47 10.67,-3.56 5.87,-5.87 9.79,-11.64 11.37,-19.95 0.51,-2.68 -0.06,-6.07 -0.71,-8.55 -0.76,-2.94 -0.74,-8.37 -2.13,-10.69l-9.96 -18.53zm-113.78 -8.55c-11.82,-2.75 -16.79,-12.33 -26.31,-18.53 -5.29,-3.45 -16.45,-11.4 -22.76,-11.4 -8.81,0 -7.67,9.97 -6.4,16.39 1.4,7.1 5.69,12.34 5.69,19.95 0,11.95 -4.27,21.44 -4.27,32.78 0,7.91 7.1,14.57 14.22,16.39 6.06,1.54 14.98,-0.73 20.63,-2.14 6.37,-1.6 11.79,-3.19 18.49,-3.56 8.03,-0.45 13.47,-6.28 14.93,-13.54 0.85,-4.21 1,-7.8 0,-12.11 -0.94,-4.02 -3.37,-7.12 -4.27,-10.69l-0.71 -0.72 -9.24 -12.82zm11.38 348.47c-0.87,-11.55 -21.27,-41.58 -32.01,-46.32 -13.63,-6 -28.62,-18.53 -44.09,-18.53l-0.71 0.72c-1.77,8.97 -1.89,18.62 -3.55,27.79 -2.89,16 -11.25,34.5 -5.69,51.31 5.31,16.09 32.18,40.25 48.36,45.61 8.88,2.95 21.9,0.79 30.58,-1.43 4.85,-1.23 10.36,-1.27 14.93,-2.85 3.46,-1.19 7.49,-3.46 9.96,-4.28 0,-12.03 -11.38,-24.05 -11.38,-36.34l-6.4 -15.68zm36.98 109.75c-2.35,0.33 -6.4,0.75 -7.11,-2.14 -2.66,-0.37 -5.8,-3.62 -8.54,-4.99 -4.81,-2.39 -31.59,-14.03 -26.31,0.71 3.17,8.83 5.65,18.73 9.95,27.08 2.82,5.46 6.69,7.84 12.81,7.84 8.39,0 13.81,4.77 22.04,1.43 4.22,-1.72 6.57,-1.51 8.54,-6.42 1.15,-2.85 2.13,-3.57 0.71,-6.41 -0.97,-1.96 -0.85,-4.68 -2.14,-6.41l-9.95 -10.69zm364.11 143.24l-4.27 0c-4.47,-9 -51.61,-25.44 -63.29,-34.21 -32.42,-24.33 -68.13,-37.06 -108.1,-32.78 -32.05,3.44 -63.15,7.27 -93.87,-4.99 -18.61,-7.42 -33.13,-24 -51.2,-28.5 -12.41,-3.08 -24.09,-1.41 -32,9.26 -28.03,37.84 99.33,79.61 102.4,114.02 5.93,4.95 9.41,17.85 14.94,24.94 15.11,19.4 39.57,33.98 54.04,52.02 -0.95,-0.52 -1.1,-1.06 -2.13,-0.71 9.4,38.15 34.15,84.05 75.38,92.64 18.93,3.95 38.42,-3.69 58.32,0.72 17.47,3.86 26.36,7.12 45.51,7.12 28.85,0 21.11,35.85 49.78,19.24 14.43,-8.37 44.59,-4.33 51.21,-18.53 5.52,-11.82 -3.16,-32.38 9.24,-41.33 29.42,-21.22 31.84,-14 44.8,-50.59 8.51,-24.06 27.65,-43.04 35.56,-66.99 -29.35,-7.23 -56.05,-1.53 -84.63,-17.1 -26.72,-14.57 -38.53,-66.35 -60.44,-91.93 -30.26,-35.31 -18.98,2.69 -15.65,22.09 1.68,9.78 3.56,19.24 3.56,29.22 0,9.96 -7.47,9.81 -8.54,18.52l-20.62 -2.13zm-3238.12 -582.47c9.75,0.82 20.17,2.35 31.51,4.52 32.61,6.27 34.43,-45.49 78.94,-43.47 55.91,2.53 110.21,52.03 166.41,52.03 32.59,0 55.81,-8.32 87.47,5.7 35.87,15.9 28.25,-20.64 58.32,-18.53 15.67,1.09 25.51,-0.83 39.82,-2.85 0.39,-1.6 0.54,-1.23 2.14,-2.14 0.36,-1.83 1.17,-2.44 1.42,-4.28 3.9,-2.78 6.45,-14.5 7.82,-18.52 8.4,-31.07 8.95,-31.33 35.56,-47.75 16.73,-10.33 13.96,-27.28 27.73,-34.92 28.58,-15.84 46.8,-76.32 64.01,-106.89 13.8,-24.49 47.97,-21.84 54.05,-50.6 8.47,-40.07 46.97,-71.16 71.82,-101.91 35.92,-44.46 85.31,-58.9 140.81,-47.74 23.66,4.76 59.37,36.88 73.25,34.92 11.53,-20.3 22.44,-52.74 49.07,-57.01 20.47,-12.42 45.7,9.35 63.29,12.82 13.17,23.04 20.74,50.64 40.54,70.55 13.39,13.48 40.33,-36.57 46.94,-41.33 64.22,-46.34 105.63,62 156.45,62 18.31,0 123.44,23.2 132.28,33.49 21.13,1.95 57.74,26.14 69.69,43.47 31.42,45.6 38.15,-35.92 41.96,-44.89l3.55 0c12.3,12.21 33.28,46.63 50.5,34.2 18.98,6.96 60,11.1 71.82,27.8 20.91,5.21 42.04,28.84 59.03,40.62 21.97,15.25 50.17,18.02 76.09,20.66 23.65,2.4 123.79,30.64 135.12,50.6 35.48,10.07 59.47,66.95 88.9,86.23 30.48,19.96 65.9,67.3 83.2,99.05 15.02,27.55 20.54,68.54 47.65,87.66 29.39,19.59 57.89,-11 71.83,32.06 14.59,45.1 49.21,30.57 73.96,53.45 17.2,15.89 11.7,43.24 19.91,64.85 12.76,33.6 53.33,36.77 81.07,50.6 39.92,19.89 61.34,60.46 98.85,79.1 35.37,17.59 28.84,-15.16 50.5,-24.94 24.78,-11.18 47.36,-7.19 73.24,-11.4 2.67,-0.43 27.98,-6.71 17.78,-13.54 0,-6.46 -62.52,-54.05 -73.25,-62 0,-10.45 17.07,-6.63 17.07,-24.95 0,-15.66 -4.31,-30.98 -9.95,-45.6 -4.4,-13.08 -31.83,-47.59 -22.76,-59.86 13.03,-17.6 38.53,-3.91 56.89,-8.56 0,-48.36 -69.96,-57.46 -59.74,-116.15 7.78,-44.66 59.5,-66.99 98.14,-66.99 41.39,0 18.81,-23.9 12.09,-44.18 -5.32,-16.03 0.98,-25.67 4.98,-41.34 4.37,-17.07 -2.03,-37.81 -4.27,-54.87 -6.38,-48.68 13.43,-138.5 80.37,-121.86 32.22,8 44.56,45.61 78.93,45.61 31.91,31.91 25.55,28.74 68.99,31.35 25.03,1.51 27.37,-17.1 48.35,-17.1 44.65,0 64.01,83.55 64.01,118.3 0,25.63 -2.96,120.15 47.65,89.08 10.06,-6.18 11.13,-49.94 10.66,-62 -1.66,-42.61 9.61,-30.64 44.81,-30.64 16.27,0 13.6,60.76 29.87,71.97 40.32,27.77 34.97,21.04 41.24,-19.95 4.54,-29.63 -35.28,-92.43 14.94,-76.97 21.75,6.7 26.98,-10.2 46.22,-2.13 25.34,10.62 32.33,25.98 62.58,13.54 12.08,-4.97 28.49,50.14 14.94,52.73 -11.25,2.16 -64.72,-25.8 -64.72,-23.52 0,10.5 14.83,29.92 22.76,36.35 30.33,24.56 -35.56,0.84 -35.56,1.42 0,16.16 18.17,28.93 26.31,40.62 29.43,42.3 -4.1,21.38 -24.89,21.38 14.13,18.58 29.01,27.73 47.65,40.62 19.59,13.53 36.11,40.44 56.89,49.17 38.27,10.35 12.8,-17.41 12.8,-33.49 22.18,5.42 64.19,39.43 84.63,8.55 16.67,-25.2 -42.83,-67.85 -61.16,-78.39 -20.81,-11.95 28.79,-20.18 35.56,-25.65 13.36,-10.78 1.56,-30.05 7.82,-38.49 30.15,30.37 -0.01,84.9 18.49,92.65 36.95,15.5 62.7,-6.42 98.85,-6.42 0,-26.82 -15.42,-23.81 -33.42,-27.08 -23.36,-4.24 -20.2,-28.6 -31.29,-46.32 -7.25,-11.6 -19.51,-19.79 -27.02,-30.64 -12.53,-18.13 17.98,0.39 22.75,3.56 16.94,11.24 110.08,73.65 104.54,39.2 -2.57,-16.03 -17.07,-34.68 -17.07,-47.75 12.1,0 22.19,17.52 32.72,22.8 13.61,6.81 27.37,3.82 41.96,5.71 16.28,2.11 44.52,15.3 66.36,16.36l0 0 -1.2 -272.88 -295.36 0 0 -289.69 -1698.28 0 0 -305.56 -275.36 0 0 0 -1428.68 0 0 0 -3.14 906.39 0 0z"/>
  <path class="fil0 str0" d="M12605.74 9650.66c0,-5.85 -2.14,-11.18 -2.14,-17.1 -1.47,-1.97 -1.69,-3.41 -2.84,-5.71 -2.7,-5.44 -5.21,-10.83 -7.82,-16.39 -30.58,-48.52 -40.66,-67.97 -12.09,-121.86 18.18,-34.31 -14.6,-88.19 -23.47,-121.85 -7.08,-26.9 33.55,-58.64 10.66,-77.68 -23.45,0 -37.77,11.39 -59.02,16.39 -21.64,5.1 -26.34,-20.02 -46.23,-24.23 -12.18,-2.57 -31.51,-5.27 -42.67,0.71 -14.28,23.93 40.42,87.28 2.85,92.64 -22.54,90.5 -101.2,156.43 -91.03,256.55 3.89,38.28 13.04,53.92 -21.33,88.37 -17.86,21.77 -5.96,44.65 -20.63,68.41 -10.27,16.65 -1.05,60.62 7.82,76.25 35.21,20 78.23,-3.29 113.79,21.38 22.56,15.64 56.93,20.87 76.09,-2.85 14.73,-18.22 14.06,-40.64 34.14,-54.87 25.39,-17.98 67.06,-32.18 81.78,-60.58 20.18,-38.9 12.09,-61.59 12.09,-101.9l-9.95 -15.68zm-455.86 -230.18c0,-12.88 -2.76,-23.62 -7.82,-34.92 -6.91,-15.45 -17.1,-66.27 11.38,-66.27 8.74,0 18.76,4.33 27.74,5.7 10.48,1.61 20.51,5.7 31.29,5.7 26,0 26.31,7.18 26.31,32.07 0,23.39 2.86,44.77 -8.53,65.56 -6.3,11.48 -15.18,18.58 -21.34,29.22 -5.59,9.63 -10.06,20.15 -15.65,29.93 -3.36,1.68 -9.21,5.32 -12.08,7.84 -17.23,1.87 -40.91,16.28 -55.48,-3.57 -6.77,-9.24 -9.03,-21.44 -8.53,-32.78 0.44,-9.79 14.04,-16.89 20.62,-23.52l12.09 -14.96zm474.35 -313.56c-17.45,-3.99 -36.34,-18.66 -51.92,-27.08 -14.45,-7.82 -30.96,-25.65 -47.65,-25.65 -1.62,8.24 -0.84,17.59 -3.55,25.65 -6.04,17.97 -10.13,19.82 0,37.06 20.92,35.63 -25.37,12.12 -22.05,41.33 0.66,5.79 57.78,11.13 67.56,13.54 1.78,7.26 -10.56,21.58 -11.38,32.07 -0.84,10.83 0.44,23.14 11.38,28.51 20.21,9.94 36.74,-14.33 56.18,2.13 13.84,11.73 31.98,13.4 46.94,1.43 14.23,-11.4 11.9,-12.36 8.53,-26.37 -3.03,-12.57 29.94,-39.35 9.96,-52.73 -5.72,-3.84 -14.67,-6.07 -21.33,-7.84 -10.1,-2.7 -17.75,-11.52 -28.45,-12.83l-14.22 -29.22zm283.04 -4.27c-9.91,-0.77 -59.46,-8.11 -64.01,0 -4.81,8.59 37.55,10.16 16.36,27.08 -16.01,12.77 -0.95,52.95 -13.51,72.69 -13.13,20.61 -53.05,19.95 -74.67,19.95 0.49,1.51 54.2,22.88 61.16,25.65 15.62,6.2 30.11,7.66 44.8,-3.56 9.67,-7.4 25.64,-20.81 29.16,-32.78 2.59,-8.78 0.45,-17.1 5.68,-24.94 6.45,-9.66 14.94,-19.57 14.94,-32.07 0,-9.99 -8.66,-22.96 -11.38,-31.36l-8.53 -20.66zm603.92 1459.62l0 59.71 115.88 0c22.94,8.18 15.53,6.94 19.09,7.83 0.65,2.61 0.23,2.2 2.84,2.85l1.43 1.43c0.64,2.58 2.2,3.12 2.84,5.7 3.08,1.02 12.86,23.42 15.65,28.5 4.27,7.74 4.44,19 7.11,27.08 8.99,27.21 17.07,54.19 17.07,84.09 1.17,0.39 2.52,17.05 2.84,19.96 0.98,8.66 15.67,14.97 22.76,18.53 5.2,1.51 10.31,3.37 15.64,4.27 5.13,0.86 6.41,2.46 11.38,2.85 2.89,0.23 4.67,2.63 8.53,1.43 5.35,-1.68 11.98,-5.6 15.65,-8.55 2.27,-1.81 7.11,-9.87 7.11,-12.83 3.03,-1.01 1.66,-2.99 2.85,-5.7 0.65,-1.46 3.38,-2.85 4.26,-4.28 0.59,-0.97 0.89,-1.86 1.43,-2.85 2.94,-5.35 5.98,-17.77 10.66,-22.45l544.07 -3.58 0 0 0 275.48 0 0 -2.76 275.08 -298.8 0 0 0 -824.94 0 0 -285.57 -390.22 0 0 0c4.24,-58.27 23.83,-121.99 41.75,-160.57 12.48,-26.86 44.53,-25.27 59.02,-51.31 9.02,-16.2 18.92,-16.29 26.32,-34.92 5.76,-14.52 23.78,-11.62 36.98,-12.83 18.19,-18.19 16.79,-58.4 40.53,-70.55 8.45,-4.33 31.43,32.75 63.3,20.67 8.43,-3.19 14.78,-8.24 20.04,-14.23 11.31,18.11 24.52,16.3 40.4,27.77 14.45,10.45 4.75,47.54 14.94,64.85 23.42,39.82 34.15,-2.14 56.18,-2.14 6.5,26.41 40.8,30.1 47.65,57.72 2.49,10.02 15.23,50.04 31.29,42.05 13.14,-6.55 13.28,-23.29 33.42,-15.68 28.3,10.68 46.18,18.9 78.94,19.96 39.25,1.26 40.03,19.63 65.43,39.9 28.87,14.96 28.6,36.57 41.96,63.43 14.36,28.9 69.08,64.73 101.69,66.27 22.18,1.05 93.57,3.16 46.94,-43.47 -15.9,-15.9 -104.5,5.1 -93.87,-53.45 6.22,-34.31 -7.23,-37.52 -22.05,-64.85 -10.75,-19.81 -8.36,-48.42 -28.45,-58.43 -3.31,10.03 -81.3,-0.83 -93.87,0.71 -31.64,3.9 -126.17,-42.62 -151.48,-62 -13.58,-10.41 -26.55,-42.65 -39.11,-47.74 -23.21,-9.39 -20.31,-23.04 -39.82,-34.21 -2.66,0.88 -7.82,1.32 -8.54,4.28 -2.02,0.66 -4.09,5.12 -6.4,5.7 -0.95,1.91 -4.39,1.75 -4.98,3.56 -1.87,0 -4.48,0.64 -4.97,2.14l-2.85 0c-0.67,2.05 -15.13,3.29 -16.36,1.42 -4.05,0 -8.03,-3 -12.09,-3.56l-0.71 -2.14c-42.01,-5.92 -2.92,-63.89 5.69,-81.24 7.87,-1.54 11.18,6.26 20.63,5.7 19.87,-1.19 35.84,-33.09 49.78,-44.89 12.47,-10.54 26.8,-26.13 44.8,-22.81 29.11,5.36 57.21,-4.74 83.21,-18.52 33.82,-17.91 54.1,-23.95 91.73,-11.41 23.51,4.56 47.1,10.83 70.56,15.84l0 0z"/>
  <path class="fil0 str0" d="M11760.66 8609.26l3.14 -906.39 0 0 0 -867.35 0 0 -1130.32 0 0 582.21 -577.24 0 0 587.79 0 0 291.81 0 0 897.51 58.23 0 1.71 398.45 0 0c8.26,5.87 14.37,4.86 23.03,-21.39 10.83,-2.67 15.94,-8.44 22.75,-10.69 5,-19.74 17.54,-29.94 19.92,-55.58 14.97,-18.87 14.36,-38.34 47.64,-36.35 17.67,1.06 37.92,6.4 56.9,8.55 30.5,3.45 86.38,4.92 64.71,-44.18 -13.8,-31.29 17.51,-54.05 9.96,-82.66 -7.37,-27.9 29.97,-55.31 41.96,-76.25 18.98,-2.75 -20.86,-37.81 -14.94,-52.03 13.21,-31.68 20.26,-60.31 26.32,-94.06 13.08,-72.85 35.45,-67.5 93.87,-103.33 12.96,-9.35 9.95,-20.64 9.95,-33.5 22,-7.13 47.62,-33.34 75.39,-26.37 35.86,9.01 36.39,14.49 54.76,-24.22 32.79,-69.05 134.83,45.12 195.56,-8.56 41,-36.23 82.98,-31.36 140.1,-29.21 58.74,2.22 170.35,41.74 211.22,82.66 29.28,9.76 63.65,25.85 90.31,41.33 16.53,9.59 45.93,38.49 64.01,38.49 16.13,-27.24 -61.7,-76.28 -7.11,-119.73 44.67,-35.57 76.7,-49.34 126.36,-45.14l0 0z"/>
  <path class="fil0 str0" d="M9947.43 6956.92c-11.37,8.78 -20.16,37.57 -24.18,50.6 -5.54,17.98 -28.02,18.87 -41.96,6.41 -26.53,-23.69 -8.48,-104.28 -2.84,-135.4 3.48,-19.26 -5.45,-13.95 -16.36,-22.8 -18.24,-14.78 -13.27,-48.96 -18.49,-71.26 -4.05,-17.28 -20.38,-46.95 -17.07,-63.43 3.07,-15.34 45.59,-65.56 60.45,-65.56 8.18,0 19.84,10.69 32,10.69 12.47,0 33.05,-4.67 43.39,-2.14 8.13,32.99 29.6,49.67 52.62,72.69 21.81,21.81 -35.97,127.06 -38.4,156.78 -1.23,15.13 20.4,40.25 36.27,31.35 15.48,-8.67 27.64,-55.99 43.38,-59.86 8.7,35.32 4.84,100.61 -20.63,128.28 -10.35,11.23 -30.55,25.19 -45.51,15.67 -25.12,-16 -2.84,-34.49 -2.84,-56.29l-1.43 0c-0.35,-1.08 -12.3,-6.33 -14.22,-7.84 -9.82,-7.77 -8.3,2.39 -14.93,5.7l-9.25 6.41zm1816.35 -724.55c-10.12,-0.21 -20.15,-0.59 -29.92,-1.62 -70.37,-7.69 -143.98,24.46 -205.53,54.16 -3.46,1.67 -32.71,16.62 -32.71,4.99 0,-8.79 14.31,-27.66 9.96,-33.49 -34.92,0 -93.4,34.64 -132.28,42.04 -52.92,10.07 -123.45,58.33 -174.23,47.75 -31.85,-6.64 -47.17,-41.3 -69.7,-60.58 -26.15,-22.39 -87.24,57.06 -120.18,62.72 -151.19,134.18 -342.38,246.54 -525.55,328.52 -46.46,20.8 -64.39,6.41 -105.25,6.41 -8.23,16.47 -27.29,41.14 -41.24,54.16 -19.58,31.17 -30.13,38.39 -59.03,58.44 -21.57,14.95 -27.73,51.9 -52.63,59.15 -54.87,16 -96.73,91.32 -128.72,136.82 -37.07,52.71 -148.63,263.66 -148.63,90.5 8.97,-11.18 2.72,-36 -7.11,-43.47 -31.95,0 -75.04,35.45 -100.98,11.41 -33.35,-30.89 -43.7,-75.82 -72.54,-102.62 -22.4,-20.83 -57.42,-10.78 -86.05,-15.68 -94.28,11.61 -64.53,92.29 -114.5,134.69 -35.28,29.92 -119.63,10.26 -131.56,-37.77 -11.15,-44.86 -15.36,-30.93 -51.21,-54.88 -21.99,-14.68 -98.14,5.88 -98.14,-46.32 0,-63.93 -48.9,-106.3 -60.44,-165.33 -4.04,-3.01 -44.31,2.03 -54.05,0.72 -14.46,-1.94 -20.21,-14.26 -36.27,-14.26 -0.33,1.04 -0.25,0.56 -1.42,1.43 0,20.64 -85.8,46.33 -104.54,51.31 -53.49,17.66 -39.17,-7.28 -78.94,44.89 -9.4,12.34 -22.21,20.48 -36.55,25.35l0 0 0 1133.71 0 0 1142.4 0 0 0 0 -587.79 577.24 0 0 -582.21 1130.32 0 0 0 -0.02 -603.15 0 0z"/>
  <path class="fil0 str0" d="M9721.99 10177.29l0.72 -68.41c-7.04,-1.72 -15.11,-5.08 -22.76,-7.13 -8.42,-2.25 -16.23,-4.08 -24.18,-7.84 -19.86,-9.42 -14.94,4.96 -14.94,19.96 0,11.6 -3.1,26.98 -0.71,37.77 3.36,15.22 21.4,16.58 29.16,29.21 3.1,5.03 8.56,11.9 10.67,17.11 1.81,4.46 5.47,16.29 12.09,8.55l9.95 -29.22zm223.31 -149.65c-4.66,-1.06 -8.69,-2.14 -13.51,-2.14 -2.28,0 -4.51,-0.23 -6.4,0.71 -1.65,0.82 -2.03,2.48 -3.56,2.85 0,9.94 -0.06,19.78 4.27,28.51 1.65,3.31 6.7,3.77 9.95,2.85 1.27,-0.35 2.43,-0.28 3.56,-1.42 0.84,-0.84 1.45,-1.88 2.13,-2.86 2.6,-3.78 4.27,-6.75 4.27,-11.4l-0.71 -17.1zm75.38 -131.12c-5.58,-1.6 -10.74,-3.65 -14.22,-8.56 -12.42,-3.52 -16.63,-19.48 -25.6,-27.08 -8.63,-7.3 -17.49,-12.37 -29.16,-8.55 -26.97,8.82 -10.33,34.5 -4.98,52.02 4.82,15.81 13.39,32.89 14.93,49.18 1.85,19.55 5.55,43.57 30.58,42.04 36.3,-2.23 27.74,-45.08 27.74,-69.12l0.71 -29.93zm-128.72 -139.68c-10.12,-3.11 -30.87,-11.41 -39.82,-4.28 -8.33,6.62 -3.19,19.86 -4.98,29.22 -3.04,15.92 3.42,35.16 18.49,41.34 12.36,5.08 19.94,-5.04 27.73,-12.83 3.85,-3.85 8.29,-6.46 12.09,-9.98 1.8,-1.68 7.54,-7.96 9.96,-8.55 0.89,-1.57 1.58,-2.3 2.84,-3.56l0 -2.85c-4.81,-4.85 -10.71,-12.83 -18.49,-12.83l-7.82 -15.68zm-1367.38 333.04c0.36,-1.28 0.78,-2.55 1.25,-3.8 8.37,-22.16 19.08,-41.82 30.58,-62.72 9.94,-22.4 16.49,-48.7 22.75,-71.97 7.07,-26.32 29.73,-38.15 44.81,-59.15 9.15,-12.73 5.49,-25.63 11.38,-39.19 7.71,-17.78 22.92,-31.95 30.58,-49.18 7.62,-17.11 33.91,-43.46 36.27,-59.86 3.44,-1.13 -1.91,3.98 4.97,-8.55 12.3,-13.81 25.49,-64.89 42.67,-69.12 3.03,-12.39 23.65,-7.84 31.29,-7.84 4.62,-18.74 -13.84,-29.43 -5.69,-44.9 5.69,-10.79 36.07,-24.49 46.94,-29.93 40.33,-20.22 48.25,-51.31 101.7,-51.31 40.32,0 7.3,-31.66 26.31,-44.18 13.11,-8.62 86.54,-20.58 81.78,-39.91 -12.76,-3.14 -30.99,-0.96 -24.18,-19.95 3.04,-8.46 16.13,-44.11 22.76,-46.32 2.02,-14.45 40.1,-35.42 52.63,-38.48 0,-1.37 0.44,-1.77 -0.72,-2.14l0 -1.43c-34.85,-8.59 -68.04,-36.99 -55.47,-76.96 3.51,-43 19.39,-81.77 17.07,-125.42 -1.24,-23.3 4,-95.81 36.27,-97.63 31.23,-1.77 47.77,-12.67 75.38,-25.66 32.46,-15.26 -15.5,-51.94 -32.71,-56.3 -2.54,-10.32 35.48,-36.05 40.54,-48.46 8.19,-20.1 22.75,-46.34 44.09,-57.01 0.29,-1.49 0.22,-1.53 1.42,-2.13 1.71,-12.25 -11.59,-41.34 13.51,-41.34 2.98,-4.98 2.62,-13.7 5.69,-17.81l4.27 0c20.02,40.05 48.92,35.72 51.91,85.51 3.13,52.27 -32.66,68.64 -66.13,104.76 -20.16,21.77 -16.47,71.26 -61.16,71.26 -15.98,47.95 27.78,63.72 32.71,103.33 10.35,84.28 40.15,159.6 26.31,245.15 -10.28,63.53 8.98,129.57 24.18,191.7l2.13 0c9.36,-28.09 31.8,-57.83 44.81,-85.52 22.49,-47.88 18.46,-38.42 66.13,-22.8 24.02,7.86 29.02,-9.39 41.25,-27.8 20.35,-30.65 58.22,18.74 80.36,6.42 16.48,-9.18 9.35,-27.23 26.32,-32.78 10.85,-3.55 39.98,-4.87 38.4,-22.09 -1.58,-17.28 -23.79,-35.34 -12.8,-46.33 13.5,-13.5 25.12,-31.99 27.73,-50.59 13.77,-1.99 27.74,-25.56 27.74,-38.48 0,-21.69 3.3,-17.16 7.82,-35.64 7.12,-1 11.93,-7.12 19.91,-7.12 9.06,0 14.27,9.26 20.63,9.26 1.15,-4.7 0.16,-6.31 -0.72,-10.69 -12.39,-6.19 -20.82,-36.54 -19.2,-49.17 11.05,-8.57 47.81,-10.04 62.59,-12.11 3.23,-13.23 21.35,-30.49 17.77,-49.17 -4.88,-25.52 -7.49,-47.43 -29.15,-64.85 -15.33,-12.34 0.8,-23 4.26,-37.77 3.21,-13.74 -4.58,-56.84 7.83,-64.14 24.6,-14.46 39.48,-7.42 61.87,-4.28 2.28,8.04 25.74,40.2 32,48.46 10.72,14.12 38.39,30.65 56.89,30.65 36.12,0 87.53,7.6 120.9,19.95 32.56,12.06 23.27,4.21 30.58,-25.66 7.99,-1.12 19.59,0.94 26.31,-0.71 5.79,-23.53 6.61,-49.44 9.96,-73.4 11.45,-5.72 20.43,-20.82 29.15,-29.93l0.72 -0.71c1.43,0 1.06,0.38 1.42,-0.71 9.71,0 22.11,-7.13 30.58,-12.12 13.22,-7.77 13.69,-20.09 22.76,-30.64 11.1,-12.93 34.6,-55.72 56.18,-50.6 16.19,3.83 30.61,14.7 43.38,25.66 23.32,20.04 37.13,50.12 43.38,80.52 0,48.24 -15.47,79.11 -49.78,109.75 -29.93,26.74 -2.93,60.12 -22.05,87.65 -14.55,20.97 -52.59,18.5 -45.51,54.16 3.7,18.68 70.54,71.17 38.4,72.69 -23.52,1.12 -26.45,-14.32 -41.96,-24.23 -18.12,-11.59 -37.49,3.17 -52.62,11.4 -7.47,4.07 -18.96,-12.87 -25.61,-16.39 -42.29,-22.35 -25.11,-11.97 -29.15,23.52 -0.96,8.45 -25.99,14.42 -21.34,22.8 7.48,13.5 26.52,9.91 38.4,12.83 0,9.25 -16.41,22.3 -24.89,23.52 -2.9,11.79 -16.72,36.36 -22.04,50.59 -6.29,2.13 -12.41,26.63 -22.05,32.07 -9.48,5.34 -14.39,0.69 -23.47,1.43 -25.64,2.09 -16.71,40.06 -14.22,55.58 6.17,38.35 -38.77,91.11 -76.8,67.7 -31.55,-19.41 -45.98,42.87 -44.81,64.85 1.17,21.8 25.31,120.98 41.25,56.3 17.57,-4.33 29.84,59.07 38.4,71.97 13.41,20.18 58,38.86 80.36,51.31 21.5,11.96 25.54,1.34 44.09,2.85 23.26,1.9 33.37,51.49 51.21,44.19 13.34,-5.47 14.39,-9.52 11.38,-22.81 -7.05,-31.13 -51.17,-58.05 -35.56,-99.77 0,-22.94 -32.52,-94.23 10.67,-91.21 33.81,2.37 73.78,32.67 63.29,-22.09 -5.52,-28.8 14.93,-29.6 14.93,-53.45 0,-16.92 -19.08,-84.62 7.11,-83.38 31.3,1.48 95.45,45.06 105.97,8.55 8.86,-30.77 5.66,-25.28 -0.71,-51.31 -9.13,-2.96 15.72,-22.16 17.78,-25.65 7.39,-12.47 -16.75,-19.57 -24.18,-23.52 -19.33,-10.26 62.81,-24.94 70.4,-24.94 15.5,0 23.91,32.3 39.11,17.1 13.12,-13.12 21.7,-51.63 35.56,-50.59 17.31,1.31 27.74,14.09 36,19.96l0 0 -1.71 -398.45 -58.23 0 0 -897.51 -291.81 0 0 0 -1142.4 0 0 0 -284.23 0 0 586.16 -278.02 1.44 0 0 0 297.98 80.37 0 0 1198.67 92.62 0.11 0 0z"/>
  <path class="fil0 str0" d="M8231.64 6527.11c4.25,-0.99 5.37,-8.72 3.91,-12.29 -1.11,-2.74 -5.26,-4.98 -7.64,-6.77 -2.32,-1.73 -6.64,-2.51 -9.25,-1.07 -2.93,1.63 -3.77,7.69 -3.91,10.69 -0.19,4.14 0.39,7.83 0.89,11.75 0.39,0.4 0.72,0.82 1.07,1.25 1.26,0.33 1.56,0.77 3.2,0.71 2.18,-0.09 4.72,-1.14 6.93,-1.42l4.8 -2.85zm682.2 344.7c-22.38,7.59 -48.56,7.25 -71.55,2.45 -17.92,-3.73 -47.54,-32.78 -51.2,-32.78 -1.27,1.7 -0.4,1.79 -2.84,2.13 -54.67,95.57 -347.45,55.83 -423.85,7.84 -26.92,-16.9 -88.19,-72.57 -88.19,-106.18 0,-48.41 56.46,-14.11 24.18,-62.71 -13.44,-20.25 -33.69,-72.08 -7.11,-89.79 24.43,-16.29 24.19,-13.33 16.36,-37.06 -15.19,0 -23.49,29.15 -45.52,17.82 -16.06,-8.25 -37.3,-22.09 -55.47,-22.09 -30.07,0 -88.41,-53.72 -95.29,-81.96 -2.84,-11.65 -11.79,-63.35 3.55,-68.41l0 -1.42c-41.69,0 -73.38,-5.75 -96.71,-43.47 -8.2,-13.25 -42.64,-77.08 -35.56,-86.95 0,-48.82 3.69,-46.33 -39.12,-70.55 -26.6,-15.04 -60.48,-39.48 -78.93,-64.13 -55.64,-74.31 -30.82,-140.48 -50.5,-220.92 -24.17,-7.98 -79.65,-57.65 -79.65,-86.23l-1.42 -1.42c0,-2.47 -1.17,-4.74 -2.84,-6.41 -29.56,0 -69.6,6.41 -87.48,-24.95 -7.92,-7.92 -7.69,-22.47 -7.11,-33.49 0.7,-13.1 0.99,-21.89 -1.42,-34.21 -6.69,-1.65 -13.39,-8.4 -21.33,-1.42 -5.97,5.26 -4.51,11.87 -5.69,19.24 -3.12,19.48 -15.11,30.78 -32.72,34.92 -13.7,3.21 -32.36,-1.9 -45.51,-5.7 -15.33,-4.44 -31.72,-15.24 -29.16,-32.78 -0.63,-1.5 -0.55,-2.39 -1.42,-3.57 0,-1.86 0.27,-1.53 -0.71,-2.85 0,-3.41 -1.51,-6.69 -2.13,-9.97 -0.92,-4.79 -1.4,-10.14 -2.14,-14.97 -1.4,-9.2 -2.15,-18.95 -4.98,-27.79 -2.83,-8.81 -4.31,-18.54 -6.4,-27.79 -0.35,-1.83 -1.42,-2.45 -1.42,-4.28 -29.99,-7.39 -53.75,31.14 -76.8,-14.97 -21.15,-42.3 -1.34,-30.59 -54.76,-39.19 -22.8,-3.66 -27.34,-23.15 -44.1,-27.79 -27.14,-7.53 -62.11,16.38 -96,2.14 -28.89,-12.15 -56.87,-76.26 -73.96,-76.26 -31.7,0 -68.51,14.47 -102.41,16.39 -43.7,2.47 -81.48,5.8 -124.45,2.14 -32.16,0 -66.14,-11.87 -100.49,-22.99l0 0 0 440.72 130.59 0 0 292.84 -289.01 0 -7.84 902.11 0 0 8.47 576.62 0 0 1116.21 0 0 888.94 0 0 583.58 2.46 0 0 278.02 -1.44 0 -586.16 284.23 0 0 0 0 -1133.71 0 0z"/>
  <path class="fil0 str0" d="M4681.17 8207.11l-20.21 -800.75 0 0 -845.83 0 0 -586.27 -840.59 0 0 -305.66 -286.19 0 0 -621.23 0 0 -164.69 175.79c-45.81,48.91 -103.53,78.74 -148.63,123.99 -33.4,33.52 -55.75,69.3 -100.27,91.22 -19.05,9.37 -49.08,16.93 -64.72,30.64 -7.32,1.33 -9.43,4.03 -18.49,4.28 -146.08,48.69 -330.73,70.91 -461.54,156.78 -12.69,8.32 -89.6,56.56 -100.98,40.62 -27.24,-3.44 -29.17,-35.7 -61.87,-9.27 -28.2,22.78 -54.79,47.21 -86.05,63.43 -19.81,19.7 -34.46,36.08 -50.12,48.26l0 0 -12.25 42.6c2.06,13.62 6.3,31.73 19.7,37.41 13.18,53.48 109.23,72.83 140.81,30.64 25.77,-34.42 22.37,-30.02 51.2,-10.69 24.61,16.49 25.82,22.84 23.47,51.31 -0.96,11.67 -12.02,51.9 4.98,52.74 53.63,2.68 45.15,-36.18 93.87,9.26 46.62,43.5 110.21,14.64 133.7,76.25 13.97,36.66 53.54,80.23 58.31,119.01 17.37,12.46 34.43,64.14 49.78,83.38 8.34,10.63 19.2,26.97 19.2,40.62 0,11.72 4.45,20.5 5.69,30.64 2.6,1.86 14.82,21.27 17.78,25.66 20.19,29.87 38.58,60.92 51.2,94.06 10.83,28.42 1.43,54.54 1.43,84.09l2.84 27.8 2341.68 639.12 246.79 154.27 0 0z"/>
  <path class="fil0 str0" d="M2688.35 5893.2l0 621.23 286.19 0 0 305.66 840.59 0 0 586.27 845.83 0 0 0 -2.4 -281.26 0 0 4.27 -903.62 288.72 0 0 -291.28 -148.94 0 0 -891.6 0 0c-26.2,58.17 -77.66,138.9 -134.81,160.98 -25.77,9.95 -111.41,37.38 -124.45,-2.14 -33.01,8.13 -58.98,40.49 -99.56,47.03 -25.09,4.05 -93.41,11.81 -98.85,-27.08 -16.97,-2.77 -37.29,35.76 -49.79,49.89 -18.16,20.55 -45.8,32.51 -59.73,52.73 -11.37,16.49 -19.56,42.22 -33.43,55.59 -41.81,92.61 -207.23,176.48 -294.42,219.49 -27.17,13.41 -64.83,23 -84.62,47.74 -32.47,13.61 -98.32,48.22 -125.17,69.13 -82.78,15.07 -162.47,29.57 -250.32,22.09 -39.92,13.27 -69.19,16.36 -109.52,22.09 -35.89,5.09 -66.63,29.44 -99.56,34.92 -27.51,24.42 -89.05,5.52 -108.1,-21.38 -3.86,-0.38 -5.68,-3.75 -9.96,-4.27 -41.83,-33.79 -178.39,7.94 -224.72,16.39 -80.5,14.7 -133.6,58.32 -197.7,101.19l-9.55 10.21 0 0z"/>
  <path class="fil0 str0" d="M6809.59 5489.43l0 440.72 130.59 0 0 292.84 -289.01 0 -7.84 902.11 0 0 -1272.18 0 0 0 6.39 -1485.83 283.67 0 0 -298.73 218.17 0 0 0c-4.29,24.11 -11.15,55.4 -11.15,74.96 -7.82,15.21 -9.67,51 -15.64,70.56 -9.54,31.29 -47.34,79.16 -40.54,111.88 7.26,34.89 6.41,64.25 -2.84,99.05 -14.69,55.29 -9.08,78.7 11.38,128.99 15.08,37.09 26.96,58.23 17.78,95.49l-25.61 0.71c-17.34,0.47 -11.99,10.37 -22.04,17.11 -23.43,36.5 -52.71,62.05 -4.27,84.8 73.37,34.45 98.9,-89.57 123.74,-134.69 19.4,-35.22 46.51,-72.37 73.96,-102.62l35.56 -39.19c1.68,-1.85 23.61,-27.44 13.51,-29.93 0,-2.49 -2.89,-3.01 -3.55,-5.7 -1.45,-0.35 -6.08,-2.95 -6.4,-4.28 -10.26,0 -42.67,-4.5 -42.67,-17.81 17.43,-8.71 36.36,-67.61 53.33,-63.43 24.47,121.69 157.36,-51.56 188.46,-82.66 65.04,-57.92 115.46,-110.75 194.86,-146.09 32.83,-14.62 133.77,-98.92 162.14,-91.93 0,104.37 -157.07,167.14 -210.5,235.88 -27.93,35.92 -61.74,105.87 -66.85,151.08 -4.05,35.8 -61.6,72.73 -54.76,100.48l0.71 0.71c89.29,0 129.2,-285.05 246.77,-285.05 78.45,0 145.94,-38.48 224.02,-38.48 29.9,0 60.51,9.24 90.81,19.05l0 0z"/>
  <path class="fil0 str0" d="M6286.39 4943.74c-2.64,0.62 -2.36,0.52 -4.26,0.72 -1.3,0.14 -1.88,0.71 -3.56,0.71 -1.35,1.08 -1.84,1.42 -3.55,1.42 -1.13,0.85 -0.73,0.72 -2.14,0.72 -1.56,1.16 -4.39,2.85 -6.4,2.85l-0.71 0.71 0 1.43c-1.14,0.37 -0.71,0.78 -0.71,2.13l0 3.57c0.96,1.29 0.71,1.94 0.71,3.56 1.09,0.36 0.71,0 0.71,1.43 1.18,1.18 1.76,2.06 2.14,3.56l1.42 0c1.12,0.84 0.73,0.71 2.13,0.71 0.96,-0.72 1.7,-1.14 2.85,-1.42 0.42,-0.64 0.77,-1.04 1.42,-1.43 1.66,-1.02 3.07,-2.38 4.98,-2.85l0.71 -0.71c0.45,-1.4 0.25,-0.04 0.71,-1.43l1.42 -0.71c0.13,-0.55 0.37,-0.99 0.71,-1.43 0.73,-0.97 0.68,-1.18 1.42,-2.13 0.9,-1.18 0.38,-1.09 1.43,-1.43l-1.43 -9.98zm-407.01 396.8l-218.17 0 0 298.73 -283.67 0 -6.39 1485.83 0 0 -712.59 0 0 0 4.27 -903.62 288.72 0 0 -291.28 -148.94 0 0 -891.6 0 0c2.46,-5.48 4.71,-10.75 6.71,-15.75 1.86,-3.21 3.72,-9.17 5.69,-12.12 0,-37.89 40.37,-161.97 83.92,-167.47 24.62,-21.5 72.38,-16.72 95.29,-45.6 16.25,-20.47 19.87,-42.93 41.25,-61.29 26.61,-22.87 67.54,-35.77 100.27,-47.75 45.8,-16.78 66.53,-90.91 104.54,-104.75 23.97,-11.03 55.74,-48.86 73.25,-69.84 19.45,-23.29 57.12,-43.5 73.25,-66.28 62.17,-31.08 134.92,-45.46 197.7,-74.11 50.16,-62.88 128.34,-129.64 190.59,-179.58 8.78,-9.14 16.75,-20.29 24.22,-32.57l0 0 436.68 0.7 -0.71 329.39 193 -0.57 0 0c-31.37,8.87 -65.28,68.69 -75.02,92.14 -9.5,22.85 -14.01,108.27 14.23,117.59 -18.56,31.17 -14.21,59.95 -46.94,27.08 -18.77,-18.84 -48.67,-3.85 -61.16,13.54 -21.73,30.28 -10.53,75.92 -29.87,112.59 -16.87,32.01 -63.6,48.37 -93.16,69.84 -7.31,5.28 -20.89,11.5 -29.16,13.54 -1.52,10.9 -11.12,26.73 -14.22,39.2 -13.94,56.12 -15.44,104.56 -38.4,159.62 -10.65,25.53 -29.65,42.22 -41.25,65.57 -8.92,17.94 -38.56,53.13 -42.67,69.83 -6.17,0.89 -50.06,27.3 -56.89,13.54 -21.88,-4.3 -29.04,21.86 -32.71,45.61 -0.48,3.09 -1.05,6.4 -1.66,9.84l0 0z"/>
  <path class="fil0 str0" d="M5815.61 1244.49c-24.23,9.04 -34.45,9.63 -55.47,28.5 -14.39,12.93 -48.05,38.46 -66.14,42.76 -20.4,4.86 -17.65,-22.8 -32.71,-22.8 -13.13,0 -44.33,33.09 -62.58,39.19l-113.08 37.77c-16.58,5.54 -38.73,21.38 -56.18,21.38 -16.2,0 -22.76,-2.33 -22.76,19.24 -39.93,9.84 -70.03,53.83 -109.51,62l-120.19 59.86c-43.71,21.77 -40.18,71.24 -78.23,97.63 -9.78,6.79 -73.79,21.75 -73.96,22.09 -11.43,1.61 -17.51,24.94 -44.09,24.94 -13.56,0 -38.44,-1.55 -49.78,4.99 -35.11,20.24 -49.76,23.9 -73.25,55.59 -39.31,0 -99.72,30.6 -132.99,51.31 -7.43,4.45 -19.95,9.99 -28.44,12.82 -9.83,8.75 -23.32,12.72 -32.72,22.09 -40.1,14.7 -78.8,46.24 -118.05,64.85 -13.05,6.19 -33.65,9.66 -44.8,17.11 -2.61,0.43 -3.31,0.82 -5.69,2.13 -16.67,1.53 -32.31,15.22 -47.65,17.11l-8.53 4.99 -123.74 71.26c-27.85,16.04 -62.1,44.79 -91.74,55.58 -7.58,10.65 -26.01,18.91 -36.27,27.8 -11.33,9.83 -19.66,25.46 -32.71,33.49 -26.86,16.52 -30.58,28.44 -30.58,59.86 15.25,11.01 58.91,-13.65 74.67,-23.52l68.27 -42.75c27.66,6.81 -46.09,56.05 -59.03,65.56 -14.02,10.32 -65.02,25.25 -68.98,41.33 5.99,4.47 28.83,0.77 27.74,14.25 -0.78,9.58 -42.5,27.09 -46.23,49.89 -2.77,16.88 -15.8,44.69 -34.14,49.17 -0.22,0.91 -0.49,1.23 -0.71,2.14l0.71 0.71c25.79,0 50.64,10.78 75.39,14.25 18.08,2.54 24.18,25.46 24.18,40.62 0,21.71 13.06,15.55 29.87,20.67 10.56,3.22 30.58,19.24 39.82,19.24 10.33,0 22.22,-15.68 36.98,-15.68 51.67,0 115.15,-30.9 160.01,-58.43 24.04,-14.74 47.34,-27.87 73.96,-35.64 19.84,-5.8 76.65,-11.13 86.76,-31.35 34.12,-12.8 246.06,-90.68 246.06,-123.29 -31.77,0 -84.57,33.14 -120.18,39.91 -18.07,3.44 -73.98,1.53 -93.16,-2.14 -23.27,-4.46 -32.06,-13.43 -33.43,-37.77 -2.88,-50.84 173.52,-82.21 173.52,-109.74 -61.8,0 59.33,-51.32 77.52,-54.87 22.4,-4.36 44.33,-16.64 64,-29.93 7.3,-4.92 20.53,-11.18 25.61,-17.11 5.45,-6.37 14.01,-23.32 23.46,-25.65 23.62,-5.36 40.54,-33.5 66.85,-33.5 3.98,-3.18 10.97,-2.51 14.94,-5.7 8.06,0 29.25,-7.19 36.98,-1.42 49.9,0 94.8,-5.05 141.52,-23.52 25.76,-10.19 52.69,-22.6 76.09,-37.05 16.89,-10.44 64.03,-46.36 81.07,-48.46 48.66,-21.33 118.17,-81.51 158.59,-117.59 42.97,-38.34 23.47,-83.51 23.47,-136.11l-0.71 -0.71 -3.56 0c-1.31,1.75 0.08,1.06 -2.13,1.42 -7.08,28.94 -78.04,45.01 -88.9,89.08 -1.31,0.32 -1.1,0.13 -1.42,1.43 -22.06,5.43 -17.88,6.64 -41.96,0.71 -7.09,-28.77 159.35,-130.76 187.04,-148.94 35.02,-22.98 64.97,-54.02 98.85,-76.25 28.96,-19.01 85.28,-78.07 115.92,-84.09 8.4,-8.78 14.96,-20.15 21.33,-30.64 10.34,-17.05 25.78,-31.9 37.69,-47.04 10.84,-13.77 31.57,-32.76 27.03,-51.31 -12.25,0 -23.36,15.97 -34.14,22.09 -5.57,3.17 -11.2,7.38 -17.07,10.69 -3.32,1.86 -9.57,7.99 -13.51,8.56 -0.82,3.36 -10.16,10.22 -12.8,12.11l-32 12.83zm-1744.47 1004.8c-18.39,-4.22 -37.75,12.85 -41.96,29.93 19.01,4.82 41.99,-16.4 60.45,-22.09 9.13,-2.82 40.91,-11.29 43.38,-21.38 -6.85,0 -13.94,2.48 -20.62,4.28 -8.01,2.15 -16.89,4.28 -25.6,4.28l-15.65 4.98zm2044.58 -1227.86c-2.69,0.83 -5.54,2.33 -7.11,3.57 -3.15,2.51 -8.42,3.84 -12.09,5.7 -3.31,1.69 -6.63,3.1 -9.96,4.99 -5.12,2.9 -8.75,9.63 -13.51,13.54 -4.22,3.48 -10.67,9.92 -10.67,15.67 8.88,0 14.29,-3.35 21.33,-7.83 10.43,-6.62 29.26,-7.29 34.85,-19.96 0.59,-1.36 3.83,-3.84 4.98,-4.99 2.63,-2.66 6.61,-5.6 7.82,-9.26 1.12,-3.4 -0.84,-7.13 -4.26,-7.13l-11.38 5.7zm1597.26 2787.81c4.16,-7.76 43.24,-53.52 49.07,-36.35 9.72,0 23.78,3.06 33.42,4.99 12.1,2.43 25.17,2.79 36.98,5.7 0.28,0.88 0.55,1.14 1.42,1.43l0 2.14c-7.45,2.46 -23.87,10.68 -29.16,17.81 -2.84,3.82 -1.88,6.82 -1.42,11.41 0.59,5.96 -0.14,6.91 -1.42,12.11 -8.95,2.2 -20.08,0.99 -29.16,-2.14 -11.34,-3.92 -22.6,-5.51 -34.84,-8.55l-24.89 -8.55zm-1913.69 352.25l436.68 0.7 -0.71 329.39 193 -0.57 0 0c7.23,-2.04 14.35,-1.38 20.99,3.07 28.91,19.38 70.04,-15.3 88.18,-33.5 5.27,-5.98 16.48,-26.43 22.76,-28.5 1.42,-5.83 42.76,-34.98 51.2,-54.16 12.03,-27.31 33.14,-42.76 61.16,-48.46 13.24,-2.7 23.06,-36.9 29.16,-49.89 9.46,-20.17 43.61,-58.32 61.87,-70.55 32.22,-21.6 67.15,-13.8 102.41,-37.77 32.62,-22.16 81.14,-88.26 117.34,-93.35 26.78,-3.77 52.42,5.42 56.89,-32.78 -10.74,-45.78 -77.13,-56.25 -57.6,-119.72 13.54,-44.04 102.63,-39.91 140.1,-39.91 40.44,0 90.41,-13.36 127.29,1.43 20.03,8.04 39.54,24.14 61.87,22.8 22.95,-1.37 33.22,-25.16 53.34,-31.36 23.33,-7.2 48.39,3.54 69.69,-10.69 27.64,-18.45 24.64,-38.47 68.99,-23.51 4.96,1.67 38.54,13.06 39.82,7.84l2.13 -0.72c0.49,-1.99 2.14,-2.62 2.14,-4.98 14.74,-14.85 -11.85,-107.41 -22.05,-124 -24.13,-39.2 -109.07,-86.18 -154.32,-95.49 -49.78,-10.23 -100.38,-6.57 -148.63,-16.39 -35.56,-7.23 -14.65,12.47 -43.38,19.24 -32.94,7.77 -28.53,-21.52 -47.65,-27.8 -22.98,-7.54 -72.41,-5.69 -98.14,-6.41 -72.39,-18.01 -213.73,8.16 -285.88,22.8l-231.84 47.04c-20.02,4.06 -106.53,24.11 -118.05,35.63 -0.23,1.9 -0.22,2.05 -1.43,3.56 0,22.05 -22.27,43.39 -41.95,49.17 -15.87,7.07 -61.69,13.91 -71.83,22.1 -37.3,0 -71.1,40.68 -100.27,60.57 -39.65,27.02 -81.3,29.47 -122.32,49.17 -70.29,33.75 -149.59,89.76 -194.86,153.93 -24.02,34.04 -42.69,83.63 -66.1,122.07l0 0z"/>
 </g>
</svg>
